<?xml version="1.0" encoding="UTF-8" standalone="no"?>
<!-- Created with Inkscape (http://www.inkscape.org/) -->

<svg
   xmlns:dc="http://purl.org/dc/elements/1.1/"
   xmlns:cc="http://creativecommons.org/ns#"
   xmlns:rdf="http://www.w3.org/1999/02/22-rdf-syntax-ns#"
   xmlns:svg="http://www.w3.org/2000/svg"
   xmlns="http://www.w3.org/2000/svg"
   xmlns:sodipodi="http://sodipodi.sourceforge.net/DTD/sodipodi-0.dtd"
   xmlns:inkscape="http://www.inkscape.org/namespaces/inkscape"
   width="140.69643mm"
   height="140.69644mm"
   viewBox="0 0 140.69643 140.69644"
   version="1.1"
   id="svg8"
   inkscape:version="0.92.3 (2405546, 2018-03-11)"
   sodipodi:docname="InOutPoint.svg">
  <sodipodi:namedview
     id="base"
     pagecolor="#ffffff"
     bordercolor="#666666"
     borderopacity="1.0"
     inkscape:pageopacity="0.0"
     inkscape:pageshadow="2"
     inkscape:zoom="2.8"
     inkscape:cx="207.17381"
     inkscape:cy="195.89573"
     inkscape:document-units="mm"
     inkscape:current-layer="g7611"
     showgrid="false"
     inkscape:window-width="1920"
     inkscape:window-height="1012"
     inkscape:window-x="0"
     inkscape:window-y="32"
     inkscape:window-maximized="1"
     showguides="true"
     inkscape:guide-bbox="true"
     fit-margin-top="10"
     fit-margin-left="10"
     fit-margin-right="10"
     fit-margin-bottom="10">
    <sodipodi:guide
       position="58.924615,53.288281"
       orientation="0,1"
       id="guide1055"
       inkscape:locked="false" />
    <sodipodi:guide
       position="41.301474,47.429651"
       orientation="0,1"
       id="guide1072"
       inkscape:locked="false" />
    <sodipodi:guide
       position="47.434308,87.678393"
       orientation="1,0"
       id="guide1117"
       inkscape:locked="false" />
    <sodipodi:guide
       position="53.292951,87.678393"
       orientation="1,0"
       id="guide1119"
       inkscape:locked="false" />
    <sodipodi:guide
       position="53.292951,93.537023"
       orientation="0,1"
       id="guide1121"
       inkscape:locked="false" />
    <sodipodi:guide
       position="53.292951,87.678393"
       orientation="0,1"
       id="guide1123"
       inkscape:locked="false" />
    <sodipodi:guide
       position="87.48223,87.812033"
       orientation="1,0"
       id="guide1125"
       inkscape:locked="false" />
    <sodipodi:guide
       position="93.340861,87.812033"
       orientation="1,0"
       id="guide1127"
       inkscape:locked="false" />
  </sodipodi:namedview>
  <defs
     id="defs2">
    <marker
       inkscape:stockid="Arrow1Send"
       orient="auto"
       refY="0"
       refX="0"
       id="Arrow1Send"
       style="overflow:visible"
       inkscape:isstock="true">
      <path
         id="path1146"
         d="M 0,0 5,-5 -12.5,0 5,5 Z"
         style="fill:#ff0000;fill-opacity:1;fill-rule:evenodd;stroke:#ff0000;stroke-width:1.00000003pt;stroke-opacity:1"
         transform="matrix(-0.2,0,0,-0.2,-1.2,0)"
         inkscape:connector-curvature="0" />
    </marker>
    <marker
       inkscape:stockid="Arrow1Lend"
       orient="auto"
       refY="0"
       refX="0"
       id="marker2043"
       style="overflow:visible"
       inkscape:isstock="true">
      <path
         id="path2041"
         d="M 0,0 5,-5 -12.5,0 5,5 Z"
         style="fill:#ff0000;fill-opacity:1;fill-rule:evenodd;stroke:#fb0000;stroke-width:1.00000003pt;stroke-opacity:1"
         transform="matrix(-0.8,0,0,-0.8,-10,0)"
         inkscape:connector-curvature="0" />
    </marker>
    <marker
       inkscape:stockid="Arrow2Lend"
       orient="auto"
       refY="0"
       refX="0"
       id="marker2019"
       style="overflow:visible"
       inkscape:isstock="true">
      <path
         id="path2017"
         style="fill:#ff0000;fill-opacity:0.66666667;fill-rule:evenodd;stroke:#fb0000;stroke-width:0.625;stroke-linejoin:round;stroke-opacity:1"
         d="M 8.7185878,4.0337352 -2.2072895,0.01601326 8.7185884,-4.0017078 c -1.7454984,2.3720609 -1.7354408,5.6174519 -6e-7,8.035443 z"
         transform="matrix(-1.1,0,0,-1.1,-1.1,0)"
         inkscape:connector-curvature="0" />
    </marker>
    <marker
       inkscape:stockid="Arrow1Mend"
       orient="auto"
       refY="0"
       refX="0"
       id="Arrow1Mend"
       style="overflow:visible"
       inkscape:isstock="true">
      <path
         id="path1140"
         d="M 0,0 5,-5 -12.5,0 5,5 Z"
         style="fill:#ff0000;fill-opacity:0.66666667;fill-rule:evenodd;stroke:#fb0000;stroke-width:1.00000003pt;stroke-opacity:1"
         transform="matrix(-0.4,0,0,-0.4,-4,0)"
         inkscape:connector-curvature="0" />
    </marker>
    <marker
       inkscape:stockid="Arrow2Lend"
       orient="auto"
       refY="0"
       refX="0"
       id="Arrow2Lend"
       style="overflow:visible"
       inkscape:isstock="true">
      <path
         id="path1152"
         style="fill:#000000;fill-opacity:1;fill-rule:evenodd;stroke:#000000;stroke-width:0.625;stroke-linejoin:round;stroke-opacity:1"
         d="M 8.7185878,4.0337352 -2.2072895,0.01601326 8.7185884,-4.0017078 c -1.7454984,2.3720609 -1.7354408,5.6174519 -6e-7,8.035443 z"
         transform="matrix(-1.1,0,0,-1.1,-1.1,0)"
         inkscape:connector-curvature="0" />
    </marker>
    <marker
       inkscape:stockid="Arrow1Lend"
       orient="auto"
       refY="0"
       refX="0"
       id="Arrow1Lend"
       style="overflow:visible"
       inkscape:isstock="true">
      <path
         id="path1134"
         d="M 0,0 5,-5 -12.5,0 5,5 Z"
         style="fill:#00f5ff;fill-opacity:0.66666667;fill-rule:evenodd;stroke:#000000;stroke-width:1.00000003pt;stroke-opacity:1"
         transform="matrix(-0.8,0,0,-0.8,-10,0)"
         inkscape:connector-curvature="0" />
    </marker>
    <marker
       inkscape:stockid="Arrow1Send"
       orient="auto"
       refY="0"
       refX="0"
       id="Arrow1Send-3"
       style="overflow:visible"
       inkscape:isstock="true">
      <path
         inkscape:connector-curvature="0"
         id="path1146-6"
         d="M 0,0 5,-5 -12.5,0 5,5 Z"
         style="fill:#ff0000;fill-opacity:1;fill-rule:evenodd;stroke:#fb0000;stroke-width:1.00000003pt;stroke-opacity:1"
         transform="matrix(-0.2,0,0,-0.2,-1.2,0)" />
    </marker>
    <marker
       inkscape:stockid="Arrow1Send"
       orient="auto"
       refY="0"
       refX="0"
       id="Arrow1Send-3-6"
       style="overflow:visible"
       inkscape:isstock="true">
      <path
         inkscape:connector-curvature="0"
         id="path1146-6-1"
         d="M 0,0 5,-5 -12.5,0 5,5 Z"
         style="fill:#ff0000;fill-opacity:1;fill-rule:evenodd;stroke:#fb0000;stroke-width:1.00000003pt;stroke-opacity:1"
         transform="matrix(-0.2,0,0,-0.2,-1.2,0)" />
    </marker>
    <marker
       inkscape:stockid="Arrow1Send"
       orient="auto"
       refY="0"
       refX="0"
       id="Arrow1Send-3-7"
       style="overflow:visible"
       inkscape:isstock="true">
      <path
         inkscape:connector-curvature="0"
         id="path1146-6-9"
         d="M 0,0 5,-5 -12.5,0 5,5 Z"
         style="fill:#ff0000;fill-opacity:1;fill-rule:evenodd;stroke:#fb0000;stroke-width:1.00000003pt;stroke-opacity:1"
         transform="matrix(-0.2,0,0,-0.2,-1.2,0)" />
    </marker>
  </defs>
  <metadata
     id="metadata5">
    <rdf:RDF>
      <cc:Work
         rdf:about="">
        <dc:format>image/svg+xml</dc:format>
        <dc:type
           rdf:resource="http://purl.org/dc/dcmitype/StillImage" />
        <dc:title></dc:title>
      </cc:Work>
    </rdf:RDF>
  </metadata>
  <g
     inkscape:label="Capa 1"
     inkscape:groupmode="layer"
     id="layer1"
     transform="translate(-36.041904,-65.960884)">
    <rect
       style="fill:none;stroke:#000000;stroke-width:0.5;stroke-linecap:round;stroke-miterlimit:4;stroke-dasharray:none;stroke-opacity:1"
       id="rect815"
       width="40.065475"
       height="40.065475"
       x="46.291908"
       y="156.34184" />
    <rect
       style="fill:none;stroke:#000000;stroke-width:0.5;stroke-linecap:round;stroke-miterlimit:4;stroke-dasharray:none;stroke-opacity:1"
       id="rect815-3"
       width="40.065475"
       height="40.065475"
       x="86.357384"
       y="156.34184" />
    <rect
       style="fill:none;stroke:#000000;stroke-width:0.5;stroke-linecap:round;stroke-miterlimit:4;stroke-dasharray:none;stroke-opacity:1"
       id="rect815-6"
       width="40.065475"
       height="40.065475"
       x="126.42286"
       y="156.34184" />
    <rect
       style="fill:none;stroke:#000000;stroke-width:0.5;stroke-linecap:round;stroke-miterlimit:4;stroke-dasharray:none;stroke-opacity:1"
       id="rect815-7"
       width="40.065475"
       height="40.065475"
       x="126.42286"
       y="116.27636" />
    <rect
       style="fill:#10b700;fill-opacity:0.415493;stroke:#000000;stroke-width:0.5;stroke-linecap:round;stroke-miterlimit:4;stroke-dasharray:none;stroke-opacity:1"
       id="rect815-5"
       width="40.065475"
       height="40.065475"
       x="86.357376"
       y="116.27636" />
    <rect
       style="fill:none;stroke:#000000;stroke-width:0.5;stroke-linecap:round;stroke-miterlimit:4;stroke-dasharray:none;stroke-opacity:1"
       id="rect815-35"
       width="40.065475"
       height="40.065475"
       x="46.291904"
       y="116.27636" />
    <rect
       style="fill:none;stroke:#000000;stroke-width:0.5;stroke-linecap:round;stroke-miterlimit:4;stroke-dasharray:none;stroke-opacity:1"
       id="rect815-62"
       width="40.065475"
       height="40.065475"
       x="46.291904"
       y="76.210884" />
    <rect
       style="fill:none;stroke:#000000;stroke-width:0.5;stroke-linecap:round;stroke-miterlimit:4;stroke-dasharray:none;stroke-opacity:1"
       id="rect815-9"
       width="40.065475"
       height="40.065475"
       x="86.357391"
       y="76.210892" />
    <rect
       style="fill:none;stroke:#000000;stroke-width:0.5;stroke-linecap:round;stroke-miterlimit:4;stroke-dasharray:none;stroke-opacity:1"
       id="rect815-1"
       width="40.065475"
       height="40.065475"
       x="126.42286"
       y="76.210884" />
    <g
       id="g889"
       transform="matrix(0.46724604,0,0,0.46724604,37.656359,106.22858)">
      <g
         id="content"
         transform="matrix(0.3,0,0,-0.3,-52.5,222.75)"
         xml:space="preserve"
         stroke-miterlimit="10.433"
         font-style="normal"
         font-variant="normal"
         font-weight="normal"
         font-stretch="normal"
         font-size-adjust="none"
         letter-spacing="normal"
         word-spacing="normal"
         style="font-style:normal;font-variant:normal;font-weight:normal;font-stretch:normal;letter-spacing:normal;word-spacing:normal;text-anchor:start;fill:none;fill-opacity:1;fill-rule:evenodd;stroke:#000000;stroke-linecap:butt;stroke-linejoin:miter;stroke-miterlimit:10.43299961;stroke-dasharray:none;stroke-dashoffset:0;stroke-opacity:1"><path
           d="m 475.35,440.87 -0.03,0.06 -0.02,0.06 -0.02,0.06 -0.02,0.05 -0.02,0.06 -0.02,0.05 -0.02,0.05 -0.02,0.04 -0.03,0.05 -0.02,0.04 -0.02,0.05 -0.02,0.04 -0.03,0.03 -0.02,0.04 -0.03,0.03 -0.03,0.04 -0.03,0.03 -0.03,0.03 -0.03,0.02 -0.04,0.03 -0.04,0.02 -0.04,0.02 -0.04,0.02 -0.04,0.02 -0.05,0.01 -0.05,0.01 -0.06,0.02 h -0.06 l -0.06,0.01 -0.06,0.01 h -0.07 -0.04 -0.03 c -0.8,0 -0.96,-0.3 -1.21,-1 l -10.31,-29.8 c -0.89,-2.53 -2.89,-3.28 -5.58,-3.32 v -1.55 c 1.14,0.05 3.28,0.16 5.08,0.16 1.55,0 4.14,-0.11 5.74,-0.16 v 1.55 c -2.49,0 -3.74,1.25 -3.74,2.53 0,0.15 0.05,0.65 0.1,0.75 l 2.29,6.53 0.55,1.55 5.58,16.18 5.62,-16.18 h -11.2 l -0.55,-1.55 h 12.3 l 2.64,-7.63 c 0.06,-0.2 0.16,-0.5 0.16,-0.68 0,-1.5 -2.8,-1.5 -4.14,-1.5 v -1.55 c 1.79,0.16 5.28,0.16 7.18,0.16 2.14,0 4.42,-0.07 6.52,-0.16 v 1.55 h -0.89 c -3,0 -3.69,0.34 -4.24,1.98 z"
           id="path886"
           inkscape:connector-curvature="0"
           style="fill:#000000;stroke-width:0" /></g>    </g>
    <g
       id="g927"
       transform="matrix(0.48976392,0,0,0.48976392,89.487705,103.95675)">
      <g
         word-spacing="normal"
         letter-spacing="normal"
         font-size-adjust="none"
         font-stretch="normal"
         font-weight="normal"
         font-variant="normal"
         font-style="normal"
         stroke-miterlimit="10.433"
         xml:space="preserve"
         transform="matrix(0.3,0,0,-0.3,-52.5,222.75)"
         id="g925"
         style="font-style:normal;font-variant:normal;font-weight:normal;font-stretch:normal;letter-spacing:normal;word-spacing:normal;text-anchor:start;fill:none;fill-opacity:1;fill-rule:evenodd;stroke:#000000;stroke-linecap:butt;stroke-linejoin:miter;stroke-miterlimit:10.43299961;stroke-dasharray:none;stroke-dashoffset:0;stroke-opacity:1"><path
           id="path923"
           d="m 478.33,423.98 0.45,0.1 0.44,0.1 0.44,0.13 0.42,0.13 0.41,0.14 0.4,0.16 0.4,0.17 0.38,0.18 0.37,0.19 0.36,0.2 0.35,0.21 0.33,0.21 0.32,0.23 0.31,0.24 0.3,0.25 0.28,0.25 0.27,0.26 0.25,0.27 0.24,0.28 0.22,0.28 0.21,0.29 0.19,0.3 0.17,0.3 0.16,0.31 0.14,0.32 0.12,0.32 0.11,0.32 0.09,0.33 0.06,0.34 0.05,0.33 0.03,0.34 0.01,0.35 c 0,4.33 -4.59,8.42 -11.06,8.42 l -0.36,-1.55 c 4.85,0 6.58,-4.23 6.58,-6.87 0,-3.19 -2.44,-7.38 -7.97,-7.38 h -7.22 v -1.09 h 9.36 c 4.94,0 7.03,-4.64 7.03,-7.97 0,-3.55 -2.59,-7.62 -7.72,-7.62 v 0 h -6.23 c -2.34,0 -2.44,0.34 -2.44,1.98 v 13.61 1.09 12.25 c 0,1.66 0.1,2 2.44,2 h 6.17 l 0.36,1.55 h -18.23 v -1.55 h 1.18 c 3.85,0 3.94,-0.54 3.94,-2.34 v -26.25 c 0,-1.8 -0.09,-2.34 -3.94,-2.34 h -1.18 v -1.55 h 19.53 c 6.62,0 11.11,4.44 11.11,9.12 0,4.33 -4.1,8.07 -9.63,8.66 z"
           inkscape:connector-curvature="0"
           style="fill:#000000;stroke-width:0" /></g>    </g>
    <g
       id="g971"
       transform="matrix(0.460278,0,0,0.460278,91.846961,66.522532)">
      <g
         id="g969"
         transform="matrix(0.3,0,0,-0.3,-52.5,222.75)"
         xml:space="preserve"
         stroke-miterlimit="10.433"
         font-style="normal"
         font-variant="normal"
         font-weight="normal"
         font-stretch="normal"
         font-size-adjust="none"
         letter-spacing="normal"
         word-spacing="normal"
         style="font-style:normal;font-variant:normal;font-weight:normal;font-stretch:normal;letter-spacing:normal;word-spacing:normal;text-anchor:start;fill:none;fill-opacity:1;fill-rule:evenodd;stroke:#000000;stroke-linecap:butt;stroke-linejoin:miter;stroke-miterlimit:10.43299961;stroke-dasharray:none;stroke-dashoffset:0;stroke-opacity:1"><path
           d="m 458.32,423.23 0.02,-0.96 0.07,-0.94 0.11,-0.93 0.16,-0.91 0.2,-0.89 0.24,-0.87 0.28,-0.85 0.32,-0.83 0.36,-0.81 0.39,-0.78 0.43,-0.76 0.46,-0.74 0.49,-0.7 0.52,-0.68 0.55,-0.66 0.59,-0.62 0.6,-0.59 0.64,-0.56 0.66,-0.53 0.68,-0.5 0.7,-0.46 0.73,-0.43 0.74,-0.39 0.77,-0.35 0.78,-0.32 0.79,-0.28 0.82,-0.23 0.82,-0.2 0.84,-0.15 0.84,-0.11 0.86,-0.07 0.86,-0.02 c 8.13,0 13,6.92 13,12.7 0,0.5 0,0.84 -0.64,0.84 -0.54,0 -0.54,-0.29 -0.59,-0.79 -0.41,-7.13 -5.73,-11.21 -11.17,-11.21 -3.03,0 -12.8,1.69 -12.8,16.53 0,14.91 9.72,16.6 12.75,16.6 5.44,0 9.88,-4.53 10.86,-11.82 0.11,-0.68 0.11,-0.84 0.8,-0.84 0.79,0 0.79,0.16 0.79,1.2 v 11.8 c 0,0.86 0,1.2 -0.54,1.2 -0.19,0 -0.39,0 -0.8,-0.59 l -2.48,-3.69 c -1.85,1.8 -4.39,4.28 -9.18,4.28 -9.31,0 -17.32,-7.92 -17.32,-18.09 z"
           id="path967"
           inkscape:connector-curvature="0"
           style="fill:#000000;stroke-width:0" /></g>    </g>
    <g
       id="g1021"
       transform="matrix(0.48976392,0,0,0.48976392,35.447428,63.574376)">
      <g
         word-spacing="normal"
         letter-spacing="normal"
         font-size-adjust="none"
         font-stretch="normal"
         font-weight="normal"
         font-variant="normal"
         font-style="normal"
         stroke-miterlimit="10.433"
         xml:space="preserve"
         transform="matrix(0.3,0,0,-0.3,-52.5,222.75)"
         id="g1019"
         style="font-style:normal;font-variant:normal;font-weight:normal;font-stretch:normal;letter-spacing:normal;word-spacing:normal;text-anchor:start;fill:none;fill-opacity:1;fill-rule:evenodd;stroke:#000000;stroke-linecap:butt;stroke-linejoin:miter;stroke-miterlimit:10.43299961;stroke-dasharray:none;stroke-dashoffset:0;stroke-opacity:1"><path
           id="path1017"
           d="m 457.27,440.23 v -1.55 h 1.19 c 3.84,0 3.93,-0.54 3.93,-2.34 v -26.25 c 0,-1.8 -0.09,-2.34 -3.93,-2.34 h -1.19 v -1.55 h 18.23 l -1.34,1.55 h -5.05 c -2.32,0 -2.43,0.34 -2.43,1.98 v 26.95 c 0,1.66 0.11,2 2.43,2 h 4.99 c 3.09,0 6.53,-1.09 9.08,-4.64 2.14,-2.93 2.57,-7.22 2.57,-11.11 0,-5.53 -0.93,-8.51 -2.73,-10.95 -1,-1.34 -3.83,-4.23 -8.86,-4.23 l 1.34,-1.55 c 8.36,0 15.24,7.37 15.24,16.73 0,9.47 -6.72,17.3 -15.24,17.3 z"
           inkscape:connector-curvature="0"
           style="fill:#000000;stroke-width:0" /></g>    </g>
    <rect
       style="fill:#00f5ff;fill-opacity:0.66666667;stroke:#000000;stroke-width:0.72501594;stroke-linecap:round;stroke-miterlimit:4;stroke-dasharray:none;stroke-opacity:1"
       id="rect815-35-2"
       width="5.8586388"
       height="5.8586388"
       x="83.476212"
       y="153.36902" />
    <rect
       style="fill:#00f5ff;fill-opacity:0.66666667;stroke:#000000;stroke-width:0.72501594;stroke-linecap:round;stroke-miterlimit:4;stroke-dasharray:none;stroke-opacity:1"
       id="rect815-35-2-7"
       width="5.8586388"
       height="5.8586388"
       x="83.476212"
       y="113.12029" />
    <rect
       style="fill:#00f5ff;fill-opacity:0.66549294;stroke:#000000;stroke-width:0.72501594;stroke-linecap:round;stroke-miterlimit:4;stroke-dasharray:none;stroke-opacity:1"
       id="rect815-35-2-0"
       width="5.8586388"
       height="5.8586388"
       x="123.52413"
       y="113.12029" />
    <rect
       style="fill:#00f5ff;fill-opacity:0.66666667;stroke:#000000;stroke-width:0.72501594;stroke-linecap:round;stroke-miterlimit:4;stroke-dasharray:none;stroke-opacity:1"
       id="rect815-35-2-9"
       width="5.8586388"
       height="5.8586388"
       x="123.52412"
       y="153.36902" />
    <path
       style="fill:#ff0000;fill-opacity:1;stroke:#ff0000;stroke-width:0.5;stroke-linecap:butt;stroke-linejoin:miter;stroke-miterlimit:4;stroke-dasharray:none;stroke-opacity:1;marker-end:url(#Arrow1Send)"
       d="m 86.357373,156.34183 40.065487,1e-5"
       id="path1129"
       inkscape:connector-curvature="0" />
    <g
       transform="matrix(0.27997088,0,0,0.27997088,78.643172,126.40448)"
       id="g3020"
       style="fill:#ff0000;fill-opacity:1">
      <g
         style="font-style:normal;font-variant:normal;font-weight:normal;font-stretch:normal;letter-spacing:normal;word-spacing:normal;text-anchor:start;fill:#ff0000;fill-opacity:1;fill-rule:evenodd;stroke:#000000;stroke-linecap:butt;stroke-linejoin:miter;stroke-miterlimit:10.43299961;stroke-dasharray:none;stroke-dashoffset:0;stroke-opacity:1"
         id="g3018"
         transform="matrix(0.3,0,0,-0.3,-52.5,222.75)"
         xml:space="preserve"
         stroke-miterlimit="10.433"
         font-style="normal"
         font-variant="normal"
         font-weight="normal"
         font-stretch="normal"
         font-size-adjust="none"
         letter-spacing="normal"
         word-spacing="normal"><path
           style="fill:#ff0000;fill-opacity:1;stroke-width:0"
           inkscape:connector-curvature="0"
           d="m 488.35,449.21 0.16,0.01 h 0.16 0.15 l 0.08,0.01 h 0.08 l 0.07,0.01 0.08,0.01 0.07,0.01 0.07,0.01 0.07,0.01 0.07,0.02 0.07,0.02 0.06,0.02 0.06,0.02 0.06,0.03 0.05,0.03 0.06,0.04 0.05,0.04 0.04,0.04 0.04,0.05 0.04,0.05 0.02,0.02 0.02,0.03 0.01,0.03 0.02,0.03 0.01,0.03 0.02,0.04 0.01,0.03 0.01,0.03 0.01,0.04 v 0.04 l 0.01,0.04 0.01,0.04 v 0.04 l 0.01,0.04 v 0.05 0.04 c 0,1 -0.91,1 -1.75,1 h -26.96 c -0.84,0 -1.73,0 -1.73,-1 0,-1 0.89,-1 1.73,-1 z"
           id="path3008" /><path
           style="fill:#ff0000;fill-opacity:1;stroke-width:0"
           inkscape:connector-curvature="0"
           d="m 502.27,449.21 0.15,0.01 h 0.16 0.16 l 0.08,0.01 h 0.08 l 0.07,0.01 0.08,0.01 0.07,0.01 0.07,0.01 0.07,0.01 0.07,0.02 0.06,0.02 0.07,0.02 0.06,0.02 0.06,0.03 0.05,0.03 0.05,0.04 0.05,0.04 0.05,0.04 0.04,0.05 0.04,0.05 0.02,0.02 0.02,0.03 0.01,0.03 0.02,0.03 0.01,0.03 0.01,0.04 0.01,0.03 0.02,0.03 v 0.04 l 0.01,0.04 0.01,0.04 0.01,0.04 v 0.04 0.04 l 0.01,0.05 v 0.04 c 0,1 -0.91,1 -1.75,1 h -26.96 c -0.84,0 -1.73,0 -1.73,-1 0,-1 0.89,-1 1.73,-1 z"
           id="path3010" /><path
           style="fill:#ff0000;fill-opacity:1;stroke-width:0"
           inkscape:connector-curvature="0"
           d="m 524.9,449.21 -0.25,-0.19 -0.24,-0.2 -0.24,-0.19 -0.23,-0.19 -0.22,-0.2 -0.21,-0.19 -0.21,-0.19 -0.19,-0.18 -0.2,-0.19 -0.18,-0.18 -0.17,-0.18 -0.17,-0.17 -0.16,-0.18 -0.16,-0.17 -0.14,-0.16 -0.14,-0.16 -0.14,-0.16 -0.12,-0.16 -0.12,-0.14 -0.12,-0.15 -0.1,-0.14 -0.1,-0.13 -0.1,-0.13 -0.08,-0.12 -0.09,-0.11 -0.07,-0.11 -0.07,-0.1 -0.06,-0.1 -0.06,-0.09 -0.05,-0.08 -0.05,-0.07 -0.04,-0.07 c -2.24,-3.43 -2.64,-6.57 -2.64,-6.62 0,-0.6 0.61,-0.6 1,-0.6 0.84,0 0.89,0.1 1.09,1 1.16,4.88 4.1,9.07 9.72,11.36 0.59,0.19 0.75,0.3 0.75,0.64 0,0.35 -0.3,0.5 -0.41,0.55 -2.18,0.85 -8.21,3.35 -10.11,11.72 -0.15,0.59 -0.2,0.73 -1.04,0.73 -0.39,0 -1,0 -1,-0.59 0,-0.09 0.45,-3.23 2.54,-6.58 1,-1.48 2.44,-3.23 4.58,-4.83 h -37.01 c -0.89,0 -1.8,0 -1.8,-1 0,-1 0.91,-1 1.8,-1 z"
           id="path3012" /><path
           style="fill:#ff0000;fill-opacity:1;stroke-width:0"
           inkscape:connector-curvature="0"
           d="m 464.44,409.41 -0.19,-0.3 -0.18,-0.29 -0.19,-0.28 -0.19,-0.26 -0.18,-0.25 -0.19,-0.23 -0.19,-0.22 -0.18,-0.21 -0.19,-0.2 -0.19,-0.18 -0.18,-0.17 -0.19,-0.16 -0.19,-0.15 -0.18,-0.14 -0.19,-0.13 -0.19,-0.12 -0.19,-0.11 -0.19,-0.1 -0.19,-0.09 -0.19,-0.09 -0.19,-0.07 -0.2,-0.07 -0.19,-0.07 -0.2,-0.05 -0.19,-0.05 -0.2,-0.04 -0.2,-0.04 -0.19,-0.03 -0.41,-0.05 -0.4,-0.03 c -0.61,-0.05 -1.05,-0.05 -1.05,-1 0,-0.3 0.25,-0.55 0.64,-0.55 1.34,0 2.89,0.16 4.28,0.16 1.64,0 3.39,-0.16 4.99,-0.16 0.29,0 0.95,0 0.95,0.95 0,0.55 -0.45,0.6 -0.8,0.6 -1.15,0.09 -2.34,0.5 -2.34,1.73 0,0.61 0.3,1.16 0.69,1.84 l 3.79,6.4 h 12.5 l -0.14,1.53 h -11.42 l 9.83,16.45 1.59,-16.45 0.14,-1.53 c 0.11,-1.05 0.8,-7.83 0.8,-8.33 0,-1.5 -2.59,-1.64 -3.58,-1.64 -0.7,0 -1.2,0 -1.2,-1 0,-0.55 0.59,-0.55 0.7,-0.55 2.03,0 4.19,0.16 6.22,0.16 1.25,0 4.39,-0.16 5.64,-0.16 0.3,0 0.89,0 0.89,1 0,0.55 -0.5,0.55 -1.14,0.55 -3.09,0 -3.09,0.34 -3.25,1.79 l -3.03,31.13 c -0.11,1 -0.11,1.2 -0.95,1.2 -0.8,0 -0.99,-0.34 -1.3,-0.84 z"
           id="path3014" /><path
           style="fill:#ff0000;fill-opacity:1;stroke-width:0"
           inkscape:connector-curvature="0"
           d="m 500.8,407.57 -0.04,-0.18 -0.05,-0.17 -0.04,-0.16 -0.04,-0.15 -0.05,-0.15 -0.04,-0.13 -0.05,-0.13 -0.05,-0.12 -0.06,-0.11 -0.05,-0.11 -0.07,-0.1 -0.07,-0.09 -0.08,-0.08 -0.08,-0.08 -0.1,-0.08 -0.1,-0.06 -0.12,-0.07 -0.12,-0.05 -0.14,-0.05 -0.14,-0.05 -0.17,-0.04 -0.08,-0.02 -0.09,-0.01 -0.09,-0.02 -0.1,-0.01 -0.1,-0.02 -0.11,-0.01 -0.11,-0.01 -0.11,-0.01 -0.12,-0.01 -0.12,-0.01 -0.13,-0.01 -0.13,-0.01 -0.13,-0.01 h -0.14 l -0.15,-0.01 h -0.15 l -0.15,-0.01 h -0.16 -0.17 -0.17 -0.18 -0.18 c -0.84,0 -1.34,0 -1.34,-1 0,-0.55 0.45,-0.55 1.34,-0.55 h 17.78 c 7.88,0 13.75,5.87 13.75,10.77 0,3.57 -2.89,6.46 -7.71,7.01 5.18,0.95 10.42,4.64 10.42,9.38 0,3.68 -3.3,6.87 -9.28,6.87 l -0.69,-1.55 c 4.37,0 5.42,-2.93 5.42,-5.12 0,-4.39 -4.28,-9.13 -10.36,-9.13 h -7.26 l -0.3,-1.09 h 9.41 c 4.78,0 5.73,-3.69 5.73,-5.83 0,-4.94 -4.44,-9.76 -10.31,-9.76 h -6.78 c -0.69,0 -0.8,0 -1.1,0.04 -0.5,0.05 -0.64,0.1 -0.64,0.5 0,0.14 0,0.25 0.25,1.14 l 3.44,13.91 0.3,1.09 3.07,12.36 c 0.46,1.74 0.55,1.89 2.71,1.89 h 6.42 l 0.69,1.55 h -16.74 c -0.94,0 -1.44,0 -1.44,-1 0,-0.55 0.44,-0.55 1.4,-0.55 0.09,0 1.04,0 1.89,-0.09 0.89,-0.11 1.34,-0.16 1.34,-0.8 0,-0.2 -0.05,-0.36 -0.2,-0.95 z"
           id="path3016" /></g>    </g>
    <circle
       style="fill:#000000;fill-opacity:1;stroke:none;stroke-width:0.5;stroke-linecap:round;stroke-miterlimit:4;stroke-dasharray:none;stroke-opacity:1"
       id="path5155"
       cx="105.06425"
       cy="133.75955"
       r="1.9377041" />
    <circle
       style="fill:#000000;fill-opacity:1;stroke:none;stroke-width:0.5;stroke-linecap:round;stroke-miterlimit:4;stroke-dasharray:none;stroke-opacity:1"
       id="path5155-2"
       cx="120.76633"
       cy="166.9678"
       r="1.9377041" />
    <path
       style="fill:#ff0000;fill-opacity:1;stroke:#fb0000;stroke-width:0.5;stroke-linecap:butt;stroke-linejoin:miter;stroke-miterlimit:4;stroke-dasharray:none;stroke-opacity:1;marker-end:url(#Arrow1Send-3-6)"
       d="m 86.357373,156.34183 33.626927,10.4675"
       id="path1129-0-8"
       inkscape:connector-curvature="0"
       inkscape:transform-center-x="5.1502796"
       inkscape:transform-center-y="6.2055343"
       sodipodi:nodetypes="cc" />
    <path
       style="fill:#ff0000;fill-opacity:1;stroke:#fb0000;stroke-width:0.5;stroke-linecap:butt;stroke-linejoin:miter;stroke-miterlimit:4;stroke-dasharray:none;stroke-opacity:1;marker-end:url(#Arrow1Send-3-7)"
       d="M 86.357384,156.34184 104.64913,134.14225"
       id="path1129-0"
       inkscape:connector-curvature="0"
       sodipodi:nodetypes="cc" />
    <g
       transform="matrix(0.34545553,0,0,0.34545553,37.775268,131.72683)"
       id="g7611"
       style="fill:#ff0000;fill-opacity:1">
      <g
         style="font-style:normal;font-variant:normal;font-weight:normal;font-stretch:normal;letter-spacing:normal;word-spacing:normal;text-anchor:start;fill:#ff0000;fill-opacity:1;fill-rule:evenodd;stroke:#000000;stroke-linecap:butt;stroke-linejoin:miter;stroke-miterlimit:10.43299961;stroke-dasharray:none;stroke-dashoffset:0;stroke-opacity:1"
         id="g7609"
         transform="matrix(0.28139286,0,0,-0.28139286,-96.214436,138.83378)"
         xml:space="preserve"
         stroke-miterlimit="10.433"
         font-style="normal"
         font-variant="normal"
         font-weight="normal"
         font-stretch="normal"
         font-size-adjust="none"
         letter-spacing="normal"
         word-spacing="normal"><path
           style="fill:#ff0000;fill-opacity:1;stroke-width:0"
           inkscape:connector-curvature="0"
           d="m 459.91,406.62 -0.02,-0.07 -0.01,-0.08 -0.02,-0.07 -0.01,-0.08 -0.04,-0.16 -0.04,-0.16 -0.03,-0.16 -0.04,-0.16 -0.04,-0.16 -0.04,-0.16 -0.01,-0.08 -0.02,-0.07 -0.02,-0.07 -0.01,-0.07 -0.02,-0.07 -0.01,-0.07 -0.01,-0.06 -0.01,-0.06 -0.01,-0.05 -0.01,-0.06 -0.01,-0.05 -0.01,-0.04 -0.01,-0.04 v -0.04 -0.03 -0.02 c 0,-0.89 0.7,-1.35 1.43,-1.35 0.61,0 1.5,0.39 1.85,1.39 0.06,0.11 0.65,2.44 0.95,3.69 l 1.1,4.49 c 0.29,1.09 0.59,2.18 0.84,3.34 0.2,0.84 0.61,2.28 0.66,2.48 0.75,1.55 3.39,6.08 8.1,6.08 2.25,0 2.71,-1.84 2.71,-3.48 0,-3.1 -2.46,-9.47 -3.25,-11.61 -0.44,-1.14 -0.49,-1.75 -0.49,-2.3 0,-2.33 1.74,-4.08 4.08,-4.08 4.69,0 6.53,7.27 6.53,7.67 0,0.5 -0.45,0.5 -0.61,0.5 -0.48,0 -0.48,-0.15 -0.73,-0.9 -1,-3.38 -2.64,-6.17 -5.09,-6.17 -0.85,0 -1.19,0.5 -1.19,1.64 0,1.25 0.45,2.45 0.89,3.54 0.95,2.64 3.05,8.11 3.05,10.96 0,3.34 -2.15,5.33 -5.74,5.33 -4.48,0 -6.92,-3.19 -7.76,-4.33 -0.25,2.79 -2.3,4.33 -4.6,4.33 -2.28,0 -3.23,-1.94 -3.73,-2.83 -0.8,-1.71 -1.5,-4.64 -1.5,-4.85 0,-0.5 0.5,-0.5 0.61,-0.5 0.5,0 0.54,0.07 0.84,1.16 0.84,3.53 1.84,5.92 3.64,5.92 0.99,0 1.55,-0.64 1.55,-2.28 0,-1.05 -0.16,-1.61 -0.8,-4.19 z"
           id="path7575" /><path
           style="fill:#ff0000;fill-opacity:1;stroke-width:0"
           inkscape:connector-curvature="0"
           d="m 497.27,407.04 0.14,1.12 2.38,9.44 c 0.28,1.08 0.31,1.19 1.78,1.19 h 4.08 c 3.23,0 5.25,-0.99 5.25,-3.46 0,-1.08 -0.41,-3.83 -2.16,-5.4 -1.25,-1.11 -3.23,-1.77 -5.75,-1.77 h -5.58 l -0.14,-1.12 h 6.32 c 5.89,0 10.87,3.76 10.87,7.56 0,2.94 -2.86,5.44 -7.64,5.44 h -12.19 c -0.7,0 -1.11,0 -1.11,-0.77 0,-0.48 0.38,-0.48 1.14,-0.48 0.57,0 0.71,0 1.33,-0.08 0.71,-0.07 0.77,-0.14 0.77,-0.49 0,-0.06 0,-0.23 -0.14,-0.76 l -4.6,-18.36 c -0.36,-1.36 -0.39,-1.61 -3.11,-1.61 -0.62,0 -1.04,0 -1.04,-0.77 0,-0.03 0,-0.48 0.56,-0.48 1.02,0 3.52,0.14 4.53,0.14 0.59,0 1.81,0 2.41,-0.03 0.68,-0.05 1.56,-0.11 2.23,-0.11 0.2,0 0.72,0 0.72,0.76 0,0.49 -0.41,0.49 -1.11,0.49 -0.03,0 -0.7,0 -1.33,0.08 -0.79,0.06 -0.79,0.17 -0.79,0.51 0,0.03 0,0.25 0.14,0.77 z"
           id="path7577" /><path
           style="fill:#ff0000;fill-opacity:1;stroke-width:0"
           inkscape:connector-curvature="0"
           d="m 520.64,407.04 v 0.04 0.03 0.03 0.04 0.03 0.02 0.03 0.03 l -0.01,0.03 v 0.02 0.03 0.02 0.02 l -0.01,0.03 v 0.02 0.02 l -0.01,0.02 v 0.01 l -0.01,0.04 -0.01,0.03 -0.02,0.03 -0.01,0.03 -0.02,0.02 -0.02,0.02 -0.02,0.02 -0.03,0.02 -0.02,0.01 -0.03,0.01 -0.03,0.01 -0.04,0.01 -0.04,0.01 -0.04,0.01 h -0.02 -0.02 -0.03 l -0.02,0.01 h -0.03 -0.02 -0.03 -0.03 -0.03 -0.03 -0.03 -0.03 -0.04 -0.03 -0.03 -0.04 -0.04 -0.04 c -1.76,-1.59 -4.53,-1.59 -5.03,-1.59 h -0.42 v -1.09 h 0.42 c 0.58,0 2.19,0.06 3.64,0.68 v -12.45 c 0,-0.77 0,-1.05 -2.64,-1.05 h -1.25 v -1.09 c 1.38,0.09 3.6,0.09 5.03,0.09 1.46,0 3.68,0 5.04,-0.09 v 1.09 h -1.24 c -2.64,0 -2.64,0.28 -2.64,1.05 z"
           id="path7579" /><path
           style="fill:#ff0000;fill-opacity:1;stroke-width:0"
           inkscape:connector-curvature="0"
           d="m 580.84,419.98 h 0.14 0.14 0.14 l 0.08,0.01 h 0.07 l 0.07,0.01 0.07,0.01 0.07,0.01 0.07,0.01 0.07,0.01 0.07,0.02 0.06,0.02 0.06,0.02 0.07,0.02 0.05,0.03 0.06,0.03 0.05,0.04 0.05,0.04 0.05,0.04 0.04,0.04 0.04,0.05 0.02,0.03 0.02,0.03 0.01,0.02 0.02,0.03 0.01,0.04 0.02,0.03 0.01,0.03 0.01,0.04 0.01,0.03 0.01,0.04 0.01,0.04 v 0.04 l 0.01,0.04 v 0.04 0.05 0.04 c 0,1 -0.95,1 -1.64,1 h -29.84 c -0.7,0 -1.64,0 -1.64,-1 0,-0.98 0.94,-0.98 1.69,-0.98 z"
           id="path7581" /><path
           style="fill:#ff0000;fill-opacity:1;stroke-width:0"
           inkscape:connector-curvature="0"
           d="m 580.88,410.3 0.07,0.01 h 0.06 0.14 0.14 l 0.07,0.01 h 0.07 l 0.07,0.01 0.07,0.01 0.07,0.01 0.06,0.01 0.07,0.01 0.07,0.02 0.06,0.02 0.06,0.02 0.06,0.02 0.06,0.03 0.05,0.03 0.06,0.04 0.04,0.04 0.05,0.04 0.04,0.05 0.02,0.02 0.02,0.03 0.02,0.02 0.02,0.03 0.02,0.03 0.01,0.03 0.01,0.03 0.02,0.04 0.01,0.03 0.01,0.03 0.01,0.04 0.01,0.04 0.01,0.04 v 0.04 l 0.01,0.04 v 0.04 0.05 0.04 c 0,1 -0.95,1 -1.68,1 h -29.75 c -0.75,0 -1.69,0 -1.69,-1 0,-1 0.94,-1 1.64,-1 z"
           id="path7583" /><path
           style="fill:#ff0000;fill-opacity:1;stroke-width:0"
           inkscape:connector-curvature="0"
           d="m 631.99,449.21 0.16,0.01 h 0.16 0.15 l 0.08,0.01 h 0.08 l 0.07,0.01 0.08,0.01 0.07,0.01 0.07,0.01 0.07,0.01 0.07,0.02 0.07,0.02 0.06,0.02 0.06,0.02 0.06,0.03 0.05,0.03 0.06,0.04 0.05,0.04 0.04,0.04 0.04,0.05 0.04,0.05 0.02,0.02 0.02,0.03 0.01,0.03 0.02,0.03 0.01,0.03 0.02,0.04 0.01,0.03 0.01,0.03 0.01,0.04 v 0.04 l 0.01,0.04 0.01,0.04 v 0.04 l 0.01,0.04 v 0.05 0.04 c 0,1 -0.91,1 -1.75,1 h -26.96 c -0.84,0 -1.73,0 -1.73,-1 0,-1 0.89,-1 1.73,-1 z"
           id="path7585" /><path
           style="fill:#ff0000;fill-opacity:1;stroke-width:0"
           inkscape:connector-curvature="0"
           d="m 645.91,449.21 0.15,0.01 h 0.16 0.16 l 0.08,0.01 h 0.08 l 0.07,0.01 0.08,0.01 0.07,0.01 0.07,0.01 0.07,0.01 0.07,0.02 0.06,0.02 0.07,0.02 0.06,0.02 0.06,0.03 0.05,0.03 0.05,0.04 0.05,0.04 0.05,0.04 0.04,0.05 0.04,0.05 0.02,0.02 0.02,0.03 0.01,0.03 0.02,0.03 0.01,0.03 0.01,0.04 0.01,0.03 0.02,0.03 v 0.04 l 0.01,0.04 0.01,0.04 0.01,0.04 v 0.04 0.04 l 0.01,0.05 v 0.04 c 0,1 -0.91,1 -1.75,1 h -26.96 c -0.84,0 -1.73,0 -1.73,-1 0,-1 0.89,-1 1.73,-1 z"
           id="path7587" /><path
           style="fill:#ff0000;fill-opacity:1;stroke-width:0"
           inkscape:connector-curvature="0"
           d="m 668.54,449.21 -0.25,-0.19 -0.24,-0.2 -0.24,-0.19 -0.23,-0.19 -0.22,-0.2 -0.21,-0.19 -0.21,-0.19 -0.19,-0.18 -0.19,-0.19 -0.19,-0.18 -0.17,-0.18 -0.17,-0.17 -0.16,-0.18 -0.16,-0.17 -0.14,-0.16 -0.14,-0.16 -0.14,-0.16 -0.12,-0.16 -0.12,-0.14 -0.11,-0.15 -0.11,-0.14 -0.1,-0.13 -0.1,-0.13 -0.08,-0.12 -0.09,-0.11 -0.07,-0.11 -0.07,-0.1 -0.06,-0.1 -0.06,-0.09 -0.05,-0.08 -0.05,-0.07 -0.04,-0.07 c -2.24,-3.43 -2.64,-6.57 -2.64,-6.62 0,-0.6 0.61,-0.6 1,-0.6 0.84,0 0.89,0.1 1.09,1 1.16,4.88 4.09,9.07 9.72,11.36 0.59,0.19 0.75,0.3 0.75,0.64 0,0.35 -0.3,0.5 -0.41,0.55 -2.18,0.85 -8.22,3.35 -10.1,11.72 -0.16,0.59 -0.21,0.73 -1.05,0.73 -0.39,0 -1,0 -1,-0.59 0,-0.09 0.45,-3.23 2.55,-6.58 1,-1.48 2.43,-3.23 4.57,-4.83 h -37.01 c -0.89,0 -1.8,0 -1.8,-1 0,-1 0.91,-1 1.8,-1 z"
           id="path7589" /><path
           style="fill:#ff0000;fill-opacity:1;stroke-width:0"
           inkscape:connector-curvature="0"
           d="m 608.08,409.41 -0.19,-0.3 -0.18,-0.29 -0.19,-0.28 -0.19,-0.26 -0.18,-0.25 -0.19,-0.23 -0.18,-0.22 -0.19,-0.21 -0.19,-0.2 -0.18,-0.18 -0.19,-0.17 -0.19,-0.16 -0.19,-0.15 -0.18,-0.14 -0.19,-0.13 -0.19,-0.12 -0.19,-0.11 -0.19,-0.1 -0.19,-0.09 -0.19,-0.09 -0.19,-0.07 -0.2,-0.07 -0.19,-0.07 -0.19,-0.05 -0.2,-0.05 -0.2,-0.04 -0.19,-0.04 -0.2,-0.03 -0.41,-0.05 -0.4,-0.03 c -0.61,-0.05 -1.05,-0.05 -1.05,-1 0,-0.3 0.25,-0.55 0.64,-0.55 1.35,0 2.89,0.16 4.28,0.16 1.64,0 3.39,-0.16 4.99,-0.16 0.29,0 0.95,0 0.95,0.95 0,0.55 -0.45,0.6 -0.8,0.6 -1.15,0.09 -2.34,0.5 -2.34,1.73 0,0.61 0.3,1.16 0.69,1.84 l 3.79,6.4 h 12.5 l -0.14,1.53 h -11.42 l 9.83,16.45 1.59,-16.45 0.14,-1.53 c 0.11,-1.05 0.8,-7.83 0.8,-8.33 0,-1.5 -2.59,-1.64 -3.58,-1.64 -0.7,0 -1.2,0 -1.2,-1 0,-0.55 0.59,-0.55 0.7,-0.55 2.03,0 4.19,0.16 6.22,0.16 1.25,0 4.39,-0.16 5.64,-0.16 0.3,0 0.89,0 0.89,1 0,0.55 -0.5,0.55 -1.14,0.55 -3.09,0 -3.09,0.34 -3.25,1.79 l -3.03,31.13 c -0.11,1 -0.11,1.2 -0.95,1.2 -0.8,0 -0.99,-0.34 -1.3,-0.84 z"
           id="path7591" /><path
           style="fill:#ff0000;fill-opacity:1;stroke-width:0"
           inkscape:connector-curvature="0"
           d="m 644.45,407.57 -0.05,-0.18 -0.05,-0.17 -0.04,-0.16 -0.04,-0.15 -0.05,-0.15 -0.04,-0.13 -0.05,-0.13 -0.05,-0.12 -0.05,-0.11 -0.06,-0.11 -0.07,-0.1 -0.07,-0.09 -0.08,-0.08 -0.08,-0.08 -0.1,-0.08 -0.1,-0.06 -0.11,-0.07 -0.13,-0.05 -0.14,-0.05 -0.14,-0.05 -0.17,-0.04 -0.08,-0.02 -0.09,-0.01 -0.09,-0.02 -0.1,-0.01 -0.1,-0.02 -0.11,-0.01 -0.11,-0.01 -0.11,-0.01 -0.12,-0.01 -0.12,-0.01 -0.12,-0.01 -0.14,-0.01 -0.13,-0.01 h -0.14 l -0.15,-0.01 h -0.15 l -0.15,-0.01 h -0.16 -0.17 -0.17 -0.17 -0.19 c -0.84,0 -1.34,0 -1.34,-1 0,-0.55 0.45,-0.55 1.34,-0.55 h 17.79 c 7.87,0 13.75,5.87 13.75,10.77 0,3.57 -2.9,6.46 -7.72,7.01 5.18,0.95 10.42,4.64 10.42,9.38 0,3.68 -3.3,6.87 -9.28,6.87 l -0.69,-1.55 c 4.37,0 5.42,-2.93 5.42,-5.12 0,-4.39 -4.28,-9.13 -10.36,-9.13 h -7.26 l -0.3,-1.09 h 9.41 c 4.78,0 5.73,-3.69 5.73,-5.83 0,-4.94 -4.44,-9.76 -10.31,-9.76 h -6.78 c -0.69,0 -0.8,0 -1.1,0.04 -0.5,0.05 -0.64,0.1 -0.64,0.5 0,0.14 0,0.25 0.25,1.14 l 3.44,13.91 0.3,1.09 3.07,12.36 c 0.46,1.74 0.55,1.89 2.71,1.89 h 6.42 l 0.69,1.55 h -16.74 c -0.93,0 -1.43,0 -1.43,-1 0,-0.55 0.43,-0.55 1.39,-0.55 0.09,0 1.04,0 1.89,-0.09 0.89,-0.11 1.34,-0.16 1.34,-0.8 0,-0.2 -0.05,-0.36 -0.2,-0.95 z"
           id="path7593" /><path
           style="fill:#ff0000;fill-opacity:1;stroke-width:0"
           inkscape:connector-curvature="0"
           d="m 705.57,432.43 -0.04,0.08 -0.04,0.07 -0.03,0.07 -0.04,0.07 -0.03,0.06 -0.04,0.06 -0.03,0.06 -0.04,0.05 -0.03,0.05 -0.03,0.05 -0.04,0.04 -0.03,0.04 -0.03,0.04 -0.04,0.04 -0.03,0.03 -0.04,0.03 -0.03,0.03 -0.03,0.02 -0.04,0.03 -0.03,0.02 -0.04,0.02 -0.03,0.01 -0.04,0.02 -0.04,0.01 -0.03,0.01 -0.04,0.01 -0.04,0.01 -0.04,0.01 h -0.03 -0.04 l -0.04,0.01 h -0.04 c -0.66,0 -0.8,-0.36 -1.1,-1.05 l -12.4,-27.86 c -0.3,-0.64 -0.36,-0.73 -0.36,-0.98 0,-0.55 0.45,-1 1,-1 0.34,0 0.75,0.09 1.14,1.04 l 11.72,26.41 11.7,-26.41 c 0.45,-1.04 0.95,-1.04 1.14,-1.04 0.56,0 1,0.45 1,1 0,0.09 0,0.18 -0.3,0.79 z"
           id="path7595" /><path
           style="fill:#ff0000;fill-opacity:1;stroke-width:0"
           inkscape:connector-curvature="0"
           d="m 764.95,449.21 0.16,0.01 h 0.16 0.15 l 0.08,0.01 h 0.08 l 0.07,0.01 0.08,0.01 0.07,0.01 0.07,0.01 0.07,0.01 0.07,0.02 0.07,0.02 0.06,0.02 0.06,0.02 0.06,0.03 0.06,0.03 0.05,0.04 0.05,0.04 0.04,0.04 0.05,0.05 0.03,0.05 0.02,0.02 0.02,0.03 0.01,0.03 0.02,0.03 0.01,0.03 0.02,0.04 0.01,0.03 0.01,0.03 0.01,0.04 0.01,0.04 V 450 l 0.01,0.04 v 0.04 l 0.01,0.04 v 0.05 0.04 c 0,1 -0.91,1 -1.75,1 H 738 c -0.85,0 -1.74,0 -1.74,-1 0,-1 0.89,-1 1.74,-1 z"
           id="path7597" /><path
           style="fill:#ff0000;fill-opacity:1;stroke-width:0"
           inkscape:connector-curvature="0"
           d="m 785.95,449.21 0.15,0.01 h 0.16 0.16 l 0.08,0.01 h 0.07 l 0.08,0.01 0.07,0.01 0.08,0.01 0.07,0.01 0.07,0.01 0.07,0.02 0.06,0.02 0.07,0.02 0.06,0.02 0.06,0.03 0.05,0.03 0.05,0.04 0.05,0.04 0.05,0.04 0.04,0.05 0.04,0.05 0.02,0.02 0.02,0.03 0.01,0.03 0.02,0.03 0.01,0.03 0.01,0.04 0.01,0.03 0.01,0.03 0.01,0.04 0.01,0.04 0.01,0.04 v 0.04 l 0.01,0.04 v 0.04 0.05 l 0.01,0.04 c 0,1 -0.91,1 -1.75,1 h -26.96 c -0.84,0 -1.73,0 -1.73,-1 0,-1 0.89,-1 1.73,-1 z"
           id="path7599" /><path
           style="fill:#ff0000;fill-opacity:1;stroke-width:0"
           inkscape:connector-curvature="0"
           d="m 815.54,449.21 -0.25,-0.19 -0.24,-0.2 -0.24,-0.19 -0.23,-0.19 -0.22,-0.2 -0.21,-0.19 -0.21,-0.19 -0.19,-0.18 -0.19,-0.19 -0.19,-0.18 -0.17,-0.18 -0.17,-0.17 -0.16,-0.18 -0.16,-0.17 -0.14,-0.16 -0.14,-0.16 -0.14,-0.16 -0.12,-0.16 -0.12,-0.14 -0.11,-0.15 -0.11,-0.14 -0.1,-0.13 -0.1,-0.13 -0.08,-0.12 -0.09,-0.11 -0.07,-0.11 -0.07,-0.1 -0.06,-0.1 -0.06,-0.09 -0.05,-0.08 -0.05,-0.07 -0.04,-0.07 c -2.24,-3.43 -2.64,-6.57 -2.64,-6.62 0,-0.6 0.61,-0.6 1,-0.6 0.84,0 0.89,0.1 1.09,1 1.16,4.88 4.09,9.07 9.72,11.36 0.59,0.19 0.75,0.3 0.75,0.64 0,0.35 -0.3,0.5 -0.41,0.55 -2.18,0.85 -8.22,3.35 -10.1,11.72 -0.16,0.59 -0.21,0.73 -1.05,0.73 -0.39,0 -1,0 -1,-0.59 0,-0.09 0.45,-3.23 2.55,-6.58 1,-1.48 2.43,-3.23 4.57,-4.83 h -37.01 c -0.89,0 -1.8,0 -1.8,-1 0,-1 0.91,-1 1.8,-1 z"
           id="path7601" /><path
           style="fill:#ff0000;fill-opacity:1;stroke-width:0"
           inkscape:connector-curvature="0"
           d="m 741.04,409.41 -0.18,-0.3 -0.19,-0.29 -0.19,-0.28 -0.18,-0.26 -0.19,-0.25 -0.19,-0.23 -0.18,-0.22 -0.19,-0.21 -0.19,-0.2 -0.18,-0.18 -0.19,-0.17 -0.19,-0.16 -0.18,-0.15 -0.19,-0.14 -0.19,-0.13 -0.19,-0.12 -0.19,-0.11 -0.19,-0.1 -0.19,-0.09 -0.19,-0.09 -0.19,-0.07 -0.2,-0.07 -0.19,-0.07 -0.19,-0.05 -0.2,-0.05 -0.2,-0.04 -0.19,-0.04 -0.2,-0.03 -0.4,-0.05 -0.41,-0.03 c -0.61,-0.05 -1.05,-0.05 -1.05,-1 0,-0.3 0.25,-0.55 0.64,-0.55 1.34,0 2.89,0.16 4.28,0.16 1.64,0 3.39,-0.16 4.99,-0.16 0.29,0 0.95,0 0.95,0.95 0,0.55 -0.45,0.6 -0.8,0.6 -1.15,0.09 -2.34,0.5 -2.34,1.73 0,0.61 0.3,1.16 0.69,1.84 l 3.79,6.4 h 12.5 l -0.14,1.53 h -11.42 l 9.83,16.45 1.59,-16.45 0.14,-1.53 c 0.11,-1.05 0.8,-7.83 0.8,-8.33 0,-1.5 -2.59,-1.64 -3.58,-1.64 -0.7,0 -1.2,0 -1.2,-1 0,-0.55 0.59,-0.55 0.7,-0.55 2.03,0 4.19,0.16 6.22,0.16 1.25,0 4.39,-0.16 5.64,-0.16 0.3,0 0.89,0 0.89,1 0,0.55 -0.5,0.55 -1.14,0.55 -3.09,0 -3.09,0.34 -3.25,1.79 l -3.03,31.13 c -0.11,1 -0.11,1.2 -0.95,1.2 -0.8,0 -0.99,-0.34 -1.3,-0.84 z"
           id="path7603" /><path
           style="fill:#ff0000;fill-opacity:1;stroke-width:0"
           inkscape:connector-curvature="0"
           d="m 784.53,419.43 0.2,1.28 3.39,13.56 c 0.44,1.74 0.55,1.89 2.69,1.89 h 4.78 c 4.14,0 6.79,-1.34 6.79,-4.78 0,-1.95 -1,-6.23 -2.94,-8.03 -2.5,-2.23 -5.49,-2.64 -7.69,-2.64 h -7.02 l -0.2,-1.28 H 793 c 7.08,0 14,5.17 14,10.75 0,3.84 -3.28,7.53 -9.81,7.53 h -16.14 c -0.96,0 -1.5,0 -1.5,-0.95 0,-0.6 0.45,-0.6 1.45,-0.6 0.64,0 1.55,-0.04 2.14,-0.09 0.8,-0.11 1.09,-0.25 1.09,-0.8 0,-0.2 -0.04,-0.36 -0.2,-0.95 l -6.67,-26.75 c -0.5,-1.95 -0.59,-2.34 -4.53,-2.34 -0.85,0 -1.39,0 -1.39,-0.96 0,-0.59 0.59,-0.59 0.73,-0.59 1.41,0 4.94,0.16 6.33,0.16 1.05,0 2.14,-0.07 3.19,-0.07 1.11,0 2.2,-0.09 3.25,-0.09 0.34,0 0.98,0 0.98,1 0,0.55 -0.44,0.55 -1.39,0.55 -1.84,0 -3.23,0 -3.23,0.89 0,0.29 0.09,0.54 0.14,0.84 z"
           id="path7605" /><path
           style="fill:#ff0000;fill-opacity:1;stroke-width:0"
           inkscape:connector-curvature="0"
           d="m 813.15,418.39 v 0.05 0.04 0.04 0.04 0.04 0.04 0.04 0.03 0.03 l -0.01,0.04 v 0.03 0.03 0.03 l -0.01,0.03 v 0.02 0.03 l -0.01,0.03 V 419 l -0.01,0.02 v 0.03 l -0.01,0.04 -0.02,0.04 -0.02,0.03 -0.02,0.03 -0.02,0.03 -0.02,0.02 -0.03,0.03 -0.03,0.02 -0.03,0.01 -0.04,0.02 -0.04,0.01 -0.05,0.01 -0.02,0.01 h -0.02 l -0.03,0.01 h -0.03 -0.02 l -0.03,0.01 h -0.03 -0.03 -0.03 -0.04 -0.03 l -0.04,0.01 h -0.03 -0.04 -0.04 -0.04 -0.04 -0.05 -0.04 -0.05 c -2.23,-2.2 -5.38,-2.24 -6.82,-2.24 v -1.25 c 0.84,0 3.14,0 5.04,0.97 V 399.1 c 0,-1.16 0,-1.61 -3.48,-1.61 h -1.31 v -1.25 c 0.62,0.03 4.9,0.14 6.2,0.14 1.08,0 5.47,-0.11 6.24,-0.14 v 1.25 h -1.33 c -3.49,0 -3.49,0.45 -3.49,1.61 z"
           id="path7607" /></g>      <path
         style="font-style:normal;font-variant:normal;font-weight:normal;font-stretch:normal;letter-spacing:normal;word-spacing:normal;text-anchor:start;fill:#ff0000;fill-opacity:1;fill-rule:evenodd;stroke:#000000;stroke-width:0;stroke-linecap:butt;stroke-linejoin:miter;stroke-miterlimit:10.43299961;stroke-dasharray:none;stroke-dashoffset:0;stroke-opacity:1"
         inkscape:connector-curvature="0"
         d="m 169.25918,-5.9628933 0.0322,-0.002 h 0.0322 0.0302 l 0.0161,-0.002 h 0.0161 l 0.0141,-0.002 0.0161,-0.002 0.0141,-0.002 0.0141,-0.002 0.0141,-0.002 0.0141,-0.004 0.0141,-0.004 0.0121,-0.004 0.0121,-0.004 0.0121,-0.006 0.0121,-0.006 0.01,-0.008 0.0101,-0.008 0.008,-0.008 0.01,-0.0101 0.006,-0.0101 0.004,-0.004 0.004,-0.006 0.002,-0.006 0.004,-0.006 0.002,-0.006 0.004,-0.008 0.002,-0.006 0.002,-0.006 0.002,-0.008 0.002,-0.008 v -0.008 l 0.002,-0.008 v -0.008 l 0.002,-0.008 v -0.0101 -0.008 c 5e-5,-0.201 -0.18286,-0.201 -0.35169,-0.201 h -5.41682 c -0.17084,0 -0.34973,0 -0.34973,0.201 0,0.20099 0.17889,0.20099 0.34973,0.20099 z"
         id="path7597-1" />
      <path
         style="font-style:normal;font-variant:normal;font-weight:normal;font-stretch:normal;letter-spacing:normal;word-spacing:normal;text-anchor:start;fill:#ff0000;fill-opacity:1;fill-rule:evenodd;stroke:#000000;stroke-width:0;stroke-linecap:butt;stroke-linejoin:miter;stroke-miterlimit:10.43299961;stroke-dasharray:none;stroke-dashoffset:0;stroke-opacity:1"
         inkscape:connector-curvature="0"
         d="m 173.48007,-5.9628933 0.0302,-0.002 h 0.0322 0.0322 l 0.0161,-0.002 h 0.0141 l 0.0161,-0.002 0.0141,-0.002 0.0161,-0.002 0.0141,-0.002 0.0141,-0.002 0.0141,-0.004 0.0121,-0.004 0.0141,-0.004 0.0121,-0.004 0.0121,-0.006 0.0101,-0.006 0.01,-0.008 0.01,-0.008 0.0101,-0.008 0.008,-0.0101 0.008,-0.0101 0.004,-0.004 0.004,-0.006 0.002,-0.006 0.004,-0.006 0.002,-0.006 0.002,-0.008 0.002,-0.006 0.002,-0.006 0.002,-0.008 0.002,-0.008 0.002,-0.008 v -0.008 l 0.002,-0.008 v -0.008 -0.0101 l 0.002,-0.008 c 0,-0.201 -0.18291,-0.201 -0.35175,-0.201 h -5.41823 c -0.16883,0 -0.34772,0 -0.34772,0.201 0,0.20099 0.17889,0.20099 0.34772,0.20099 z"
         id="path7599-9" />
      <path
         style="font-style:normal;font-variant:normal;font-weight:normal;font-stretch:normal;letter-spacing:normal;word-spacing:normal;text-anchor:start;fill:#ff0000;fill-opacity:1;fill-rule:evenodd;stroke:#000000;stroke-width:0;stroke-linecap:butt;stroke-linejoin:miter;stroke-miterlimit:10.43299961;stroke-dasharray:none;stroke-dashoffset:0;stroke-opacity:1"
         inkscape:connector-curvature="0"
         d="m 179.42751,-5.9628933 -0.0503,0.0382 -0.0482,0.0402 -0.0482,0.0382 -0.0462,0.0382 -0.0442,0.0402 -0.0422,0.0382 -0.0422,0.0382 -0.0382,0.0362 -0.0382,0.0382 -0.0382,0.0362 -0.0342,0.0362 -0.0342,0.0342 -0.0322,0.0362 -0.0322,0.0342 -0.0281,0.0322 -0.0281,0.0322 -0.0281,0.0322 -0.0241,0.0322 -0.0241,0.0281 -0.0221,0.0301 -0.0221,0.0281 -0.0201,0.0261 -0.0201,0.0261 -0.0161,0.0241 -0.0181,0.0221 -0.0141,0.0221 -0.0141,0.0201 -0.0121,0.0201 -0.0121,0.0181 -0.01,0.0161 -0.01,0.0141 -0.008,0.0141 c -0.45022,0.68941 -0.53062,1.32054 -0.53062,1.33059 0,0.12059 0.12261,0.12059 0.20099,0.12059 0.16884,0 0.17889,-0.0201 0.21909,-0.20099 0.23315,-0.98086 0.82207,-1.82303 1.95367,-2.2833 0.11858,-0.0382 0.15074,-0.0603 0.15074,-0.12864 0,-0.0703 -0.0603,-0.1005 -0.0824,-0.11055 -0.43817,-0.17084 -1.65218,-0.67333 -2.03005,-2.35566 -0.0322,-0.11858 -0.0422,-0.14672 -0.21105,-0.14672 -0.0784,0 -0.20099,0 -0.20099,0.11858 0,0.0181 0.0904,0.64922 0.51253,1.32255 0.201,0.29747 0.48842,0.64921 0.91855,0.9708 h -7.43883 c -0.17888,0 -0.36179,0 -0.36179,0.201 0,0.20099 0.18291,0.20099 0.36179,0.20099 z"
         id="path7601-4" />
      <path
         style="font-style:normal;font-variant:normal;font-weight:normal;font-stretch:normal;letter-spacing:normal;word-spacing:normal;text-anchor:start;fill:#ff0000;fill-opacity:1;fill-rule:evenodd;stroke:#000000;stroke-width:0;stroke-linecap:butt;stroke-linejoin:miter;stroke-miterlimit:10.43299961;stroke-dasharray:none;stroke-dashoffset:0;stroke-opacity:1"
         inkscape:connector-curvature="0"
         d="m 164.45339,2.036707 -0.0362,0.0603 -0.0382,0.0583 -0.0382,0.0563 -0.0362,0.0523 -0.0382,0.0503 -0.0382,0.0462 -0.0362,0.0442 -0.0382,0.0422 -0.0382,0.0402 -0.0362,0.0362 -0.0382,0.0342 -0.0382,0.0322 -0.0362,0.0302 -0.0382,0.0281 -0.0382,0.0262 -0.0382,0.0241 -0.0382,0.0221 -0.0382,0.0201 -0.0382,0.0181 -0.0382,0.0181 -0.0382,0.0141 -0.0402,0.0141 -0.0382,0.0141 -0.0382,0.01 -0.0402,0.0101 -0.0402,0.008 -0.0382,0.008 -0.0402,0.006 -0.0804,0.0101 -0.0824,0.006 c -0.12261,0.01 -0.21105,0.01 -0.21105,0.2009 0,0.0603 0.0503,0.11054 0.12864,0.11054 0.26933,0 0.58087,-0.0322 0.86026,-0.0322 0.32963,0 0.68137,0.0322 1.00296,0.0322 0.0583,0 0.19095,0 0.19095,-0.19094 0,-0.11055 -0.0904,-0.1206 -0.1608,-0.1206 -0.23114,-0.0181 -0.47033,-0.1005 -0.47033,-0.34772 0,-0.12261 0.0603,-0.23316 0.13869,-0.36983 l 0.76177,-1.28637004 h 2.51244 l -0.0281,-0.30752 h -2.29537 l 1.97578,-3.30637026 0.31959,3.30637026 0.0281,0.30752 c 0.0221,0.21105004 0.1608,1.57379004 0.1608,1.67429004 0,0.30149 -0.52058,0.32963 -0.71956,0.32963 -0.1407,0 -0.2412,0 -0.2412,0.201 0,0.11054 0.11859,0.11054 0.1407,0.11054 0.40802,0 0.84217,-0.0322 1.25019,-0.0322 0.25124,0 0.88237,0.0322 1.13361,0.0322 0.0603,0 0.17889,0 0.17889,-0.20099 0,-0.11055 -0.1005,-0.11055 -0.22914,-0.11055 -0.62107,0 -0.62107,-0.0683 -0.65323,-0.35978 l -0.60871,-6.2569703 c -0.0221,-0.201 -0.0221,-0.2412 -0.19094,-0.2412 -0.1608,0 -0.19899,0.0683 -0.26129,0.16884 z"
         id="path7603-7" />
      <path
         style="font-style:normal;font-variant:normal;font-weight:normal;font-stretch:normal;letter-spacing:normal;word-spacing:normal;text-anchor:start;fill:#ff0000;fill-opacity:1;fill-rule:evenodd;stroke:#000000;stroke-width:0;stroke-linecap:butt;stroke-linejoin:miter;stroke-miterlimit:10.43299961;stroke-dasharray:none;stroke-dashoffset:0;stroke-opacity:1"
         inkscape:connector-curvature="0"
         d="m 173.19466,0.02273696 0.0402,-0.25727 0.68138,-2.72549026 c 0.0884,-0.34973 0.11054,-0.37988 0.54067,-0.37988 h 0.96076 c 0.83212,0 1.36475,0.26933 1.36475,0.96075 0,0.39194 -0.20099,1.2522 -0.59092,1.61398996 -0.50249,0.4482203 -1.10346,0.5306303 -1.54565,0.5306303 h -1.41099 l -0.0402,0.25727 h 1.70243 c 1.42304,0 2.81393,-1.03914026 2.81393,-2.16069026 0,-0.77182 -0.65927,-1.51349 -1.97176,-1.51349 h -3.24406 c -0.19296,0 -0.30149,0 -0.30149,0.19094 0,0.1206 0.0904,0.1206 0.29144,0.1206 0.12864,0 0.31154,0.008 0.43013,0.0181 0.16079,0.0221 0.21908,0.0502 0.21908,0.16079 0,0.0402 -0.008,0.0724 -0.0402,0.19095 l -1.34063,5.3766103 c -0.1005,0.39194 -0.11859,0.47033 -0.91051,0.47033 -0.17085,0 -0.27938,0 -0.27938,0.19296 0,0.11858 0.11858,0.11858 0.14672,0.11858 0.2834,0 0.99292,-0.0322 1.2723,-0.0322 0.21104,0 0.43013,0.0141 0.64117,0.0141 0.22311,0 0.44219,0.0181 0.65324,0.0181 0.0683,0 0.19697,0 0.19697,-0.20099 0,-0.11055 -0.0884,-0.11055 -0.27938,-0.11055 -0.36983,0 -0.64921,0 -0.64921,-0.17889 0,-0.0583 0.0181,-0.10853 0.0281,-0.16883 z"
         id="path7605-8" />
      <path
         style="font-style:normal;font-variant:normal;font-weight:normal;font-stretch:normal;letter-spacing:normal;word-spacing:normal;text-anchor:start;fill:#ff0000;fill-opacity:1;fill-rule:evenodd;stroke:#000000;stroke-width:0;stroke-linecap:butt;stroke-linejoin:miter;stroke-miterlimit:10.43299961;stroke-dasharray:none;stroke-dashoffset:0;stroke-opacity:1"
         inkscape:connector-curvature="0"
         d="m 178.94714,0.23177696 v -0.0101 -0.008 -0.008 -0.008 -0.008 -0.008 -0.008 -0.006 -0.006 l -0.002,-0.008 v -0.006 -0.006 -0.006 l -0.002,-0.006 v -0.004 -0.006 l -0.002,-0.006 v -0.004 l -0.002,-0.004 v -0.006 l -0.002,-0.008 -0.004,-0.008 -0.004,-0.006 -0.004,-0.006 -0.004,-0.006 -0.004,-0.004 -0.006,-0.006 -0.006,-0.004 -0.006,-0.002 -0.008,-0.004 -0.008,-0.002 -0.0101,-0.002 -0.004,-0.002 h -0.004 l -0.006,-0.002 h -0.006 -0.004 l -0.006,-0.002 h -0.006 -0.006 -0.006 -0.008 -0.006 l -0.008,-0.002 h -0.006 -0.008 -0.008 -0.008 -0.008 -0.0101 -0.008 -0.01 c -0.44822,0.44219 -1.08136,0.45023 -1.37079,0.45023 v 0.25124 c 0.16884,0 0.63112,0 1.01301,-0.19496 V 4.109857 c 0,0.23315 0,0.3236 -0.69946,0.3236 h -0.26305 v 0.25124 c 0.12462,-0.006 0.98488,-0.0281 1.24617,-0.0281 0.21707,0 1.09944,0.0221 1.25421,0.0281 v -0.25124 h -0.26733 c -0.70147,0 -0.70147,-0.0905 -0.70147,-0.3236 z"
         id="path7607-4" />
    </g>
    <g
       id="g7855"
       transform="matrix(0.34545553,0,0,0.34545553,69.652863,162.87758)"
       style="fill:#ff0000;fill-opacity:1">
      <g
         word-spacing="normal"
         letter-spacing="normal"
         font-size-adjust="none"
         font-stretch="normal"
         font-weight="normal"
         font-variant="normal"
         font-style="normal"
         stroke-miterlimit="10.433"
         xml:space="preserve"
         transform="matrix(0.2009949,0,0,-0.2009949,-35.174107,105.52233)"
         id="g7853"
         style="font-style:normal;font-variant:normal;font-weight:normal;font-stretch:normal;letter-spacing:normal;word-spacing:normal;text-anchor:start;fill:#ff0000;fill-opacity:1;fill-rule:evenodd;stroke:#000000;stroke-linecap:butt;stroke-linejoin:miter;stroke-miterlimit:10.43299961;stroke-dasharray:none;stroke-dashoffset:0;stroke-opacity:1"><path
           id="path7819"
           d="m 446.40598,347.46457 -0.028,-0.098 -0.014,-0.112 -0.028,-0.098 -0.014,-0.112 -0.056,-0.224 -0.056,-0.224 -0.042,-0.224 -0.056,-0.224 -0.056,-0.224 -0.056,-0.224 -0.014,-0.112 -0.028,-0.098 -0.028,-0.098 -0.014,-0.098 -0.028,-0.098 -0.014,-0.098 -0.014,-0.084 -0.014,-0.084 -0.014,-0.07 -0.014,-0.084 -0.014,-0.07 -0.014,-0.056 -0.014,-0.056 v -0.056 -0.042 -0.028 c 0,-1.246 0.98,-1.89 2.002,-1.89 0.854,0 2.1,0.546 2.59,1.946 0.084,0.154 0.91,3.416 1.33,5.166 l 1.54,6.286 c 0.406,1.526 0.826,3.052 1.176,4.676 0.28,1.176 0.854,3.192 0.924,3.472 1.05,2.17 4.746,8.512 11.34,8.512 3.15,0 3.794,-2.576 3.794,-4.872 0,-4.34 -3.444,-13.258 -4.55,-16.254 -0.616,-1.596 -0.686,-2.45 -0.686,-3.22 0,-3.262 2.436,-5.712 5.712,-5.712 6.566,0 9.142,10.178 9.142,10.738 0,0.7 -0.63,0.7 -0.854,0.7 -0.672,0 -0.672,-0.21 -1.022,-1.26 -1.4,-4.732 -3.696,-8.638 -7.126,-8.638 -1.19,0 -1.666,0.7 -1.666,2.296 0,1.75 0.63,3.43 1.246,4.956 1.33,3.696 4.27,11.354 4.27,15.344 0,4.676 -3.01,7.462 -8.036,7.462 -6.272,0 -9.688,-4.466 -10.864,-6.062 -0.35,3.906 -3.22,6.062 -6.44,6.062 -3.192,0 -4.522,-2.716 -5.222,-3.962 -1.12,-2.394 -2.1,-6.496 -2.1,-6.79 0,-0.7 0.7,-0.7 0.854,-0.7 0.7,0 0.756,0.098 1.176,1.624 1.176,4.942 2.576,8.288 5.096,8.288 1.386,0 2.17,-0.896 2.17,-3.192 0,-1.47 -0.224,-2.254 -1.12,-5.866 z"
           inkscape:connector-curvature="0"
           style="fill:#ff0000;fill-opacity:1;stroke-width:0" /><path
           id="path7821"
           d="m 498.70998,348.05257 0.196,1.568 3.332,13.216 c 0.392,1.512 0.434,1.666 2.492,1.666 h 5.712 c 4.522,0 7.35,-1.386 7.35,-4.844 0,-1.512 -0.574,-5.362 -3.024,-7.56 -1.75,-1.554 -4.522,-2.478 -8.05,-2.478 h -7.812 l -0.196,-1.568 h 8.848 c 8.246,0 15.218,5.264 15.218,10.584 0,4.116 -4.004,7.616 -10.696,7.616 h -17.066 c -0.98,0 -1.554,0 -1.554,-1.078 0,-0.672 0.532,-0.672 1.596,-0.672 0.798,0 0.994,0 1.862,-0.112 0.994,-0.098 1.078,-0.196 1.078,-0.686 0,-0.084 0,-0.322 -0.196,-1.064 l -6.44,-25.704 c -0.504,-1.904 -0.546,-2.254 -4.354,-2.254 -0.868,0 -1.456,0 -1.456,-1.078 0,-0.042 0,-0.672 0.784,-0.672 1.428,0 4.928,0.196 6.342,0.196 0.826,0 2.534,0 3.374,-0.042 0.952,-0.07 2.184,-0.154 3.122,-0.154 0.28,0 1.008,0 1.008,1.064 0,0.686 -0.574,0.686 -1.554,0.686 -0.042,0 -0.98,0 -1.862,0.112 -1.106,0.084 -1.106,0.238 -1.106,0.714 0,0.042 0,0.35 0.196,1.078 z"
           inkscape:connector-curvature="0"
           style="fill:#ff0000;fill-opacity:1;stroke-width:0" /><path
           id="path7823"
           d="m 538.07798,332.61057 h -1.47 c -0.098,-0.672 -0.448,-2.814 -1.008,-3.164 -0.28,-0.224 -3.206,-0.224 -3.738,-0.224 h -6.818 c 2.296,1.708 4.872,3.654 6.972,5.054 3.136,2.17 6.062,4.2 6.062,7.896 0,4.466 -4.214,6.93 -9.212,6.93 -4.704,0 -8.162,-2.73 -8.162,-6.146 0,-1.806 1.54,-2.114 2.044,-2.114 0.938,0 2.058,0.63 2.058,2.058 0,1.246 -0.924,1.946 -2.002,2.044 0.966,1.582 2.996,2.632 5.348,2.632 3.36,0 6.188,-2.03 6.188,-5.446 0,-2.94 -2.016,-5.166 -4.704,-7.434 l -8.512,-7.224 c -0.35,-0.308 -0.364,-0.308 -0.42,-0.546 v -1.05 h 16.212 z"
           inkscape:connector-curvature="0"
           style="fill:#ff0000;fill-opacity:1;stroke-width:0" /><path
           id="path7825"
           d="m 615.70798,366.16857 h 0.196 0.196 0.196 l 0.112,0.014 h 0.098 l 0.098,0.014 0.098,0.014 0.098,0.014 0.098,0.014 0.098,0.014 0.098,0.028 0.084,0.028 0.084,0.028 0.098,0.028 0.07,0.042 0.084,0.042 0.07,0.056 0.07,0.056 0.07,0.056 0.056,0.056 0.056,0.07 0.028,0.042 0.028,0.042 0.014,0.028 0.028,0.042 0.014,0.056 0.028,0.042 0.014,0.042 0.014,0.056 0.014,0.042 0.014,0.056 0.014,0.056 v 0.056 l 0.014,0.056 v 0.056 0.07 0.056 c 0,1.4 -1.33,1.4 -2.296,1.4 h -41.776 c -0.98,0 -2.296,0 -2.296,-1.4 0,-1.372 1.316,-1.372 2.366,-1.372 z"
           inkscape:connector-curvature="0"
           style="fill:#ff0000;fill-opacity:1;stroke-width:0" /><path
           id="path7827"
           d="m 615.76398,352.61657 0.098,0.014 h 0.084 0.196 0.196 l 0.098,0.014 h 0.098 l 0.098,0.014 0.098,0.014 0.098,0.014 0.084,0.014 0.098,0.014 0.098,0.028 0.084,0.028 0.084,0.028 0.084,0.028 0.084,0.042 0.07,0.042 0.084,0.056 0.056,0.056 0.07,0.056 0.056,0.07 0.028,0.028 0.028,0.042 0.028,0.028 0.028,0.042 0.028,0.042 0.014,0.042 0.014,0.042 0.028,0.056 0.014,0.042 0.014,0.042 0.014,0.056 0.014,0.056 0.014,0.056 v 0.056 l 0.014,0.056 v 0.056 0.07 0.056 c 0,1.4 -1.33,1.4 -2.352,1.4 h -41.65 c -1.05,0 -2.366,0 -2.366,-1.4 0,-1.4 1.316,-1.4 2.296,-1.4 z"
           inkscape:connector-curvature="0"
           style="fill:#ff0000;fill-opacity:1;stroke-width:0" /><path
           id="path7829"
           d="m 687.31798,407.09057 0.224,0.014 h 0.224 0.21 l 0.112,0.014 h 0.112 l 0.098,0.014 0.112,0.014 0.098,0.014 0.098,0.014 0.098,0.014 0.098,0.028 0.098,0.028 0.084,0.028 0.084,0.028 0.084,0.042 0.07,0.042 0.084,0.056 0.07,0.056 0.056,0.056 0.056,0.07 0.056,0.07 0.028,0.028 0.028,0.042 0.014,0.042 0.028,0.042 0.014,0.042 0.028,0.056 0.014,0.042 0.014,0.042 0.014,0.056 v 0.056 l 0.014,0.056 0.014,0.056 v 0.056 l 0.014,0.056 v 0.07 0.056 c 0,1.4 -1.274,1.4 -2.45,1.4 h -37.744 c -1.176,0 -2.422,0 -2.422,-1.4 0,-1.4 1.246,-1.4 2.422,-1.4 z"
           inkscape:connector-curvature="0"
           style="fill:#ff0000;fill-opacity:1;stroke-width:0" /><path
           id="path7831"
           d="m 706.80598,407.09057 0.21,0.014 h 0.224 0.224 l 0.112,0.014 h 0.112 l 0.098,0.014 0.112,0.014 0.098,0.014 0.098,0.014 0.098,0.014 0.098,0.028 0.084,0.028 0.098,0.028 0.084,0.028 0.084,0.042 0.07,0.042 0.07,0.056 0.07,0.056 0.07,0.056 0.056,0.07 0.056,0.07 0.028,0.028 0.028,0.042 0.014,0.042 0.028,0.042 0.014,0.042 0.014,0.056 0.014,0.042 0.028,0.042 v 0.056 l 0.014,0.056 0.014,0.056 0.014,0.056 v 0.056 0.056 l 0.014,0.07 v 0.056 c 0,1.4 -1.274,1.4 -2.45,1.4 h -37.744 c -1.176,0 -2.422,0 -2.422,-1.4 0,-1.4 1.246,-1.4 2.422,-1.4 z"
           inkscape:connector-curvature="0"
           style="fill:#ff0000;fill-opacity:1;stroke-width:0" /><path
           id="path7833"
           d="m 738.48798,407.09057 -0.35,-0.266 -0.336,-0.28 -0.336,-0.266 -0.322,-0.266 -0.308,-0.28 -0.294,-0.266 -0.294,-0.266 -0.266,-0.252 -0.266,-0.266 -0.266,-0.252 -0.238,-0.252 -0.238,-0.238 -0.224,-0.252 -0.224,-0.238 -0.196,-0.224 -0.196,-0.224 -0.196,-0.224 -0.168,-0.224 -0.168,-0.196 -0.154,-0.21 -0.154,-0.196 -0.14,-0.182 -0.14,-0.182 -0.112,-0.168 -0.126,-0.154 -0.098,-0.154 -0.098,-0.14 -0.084,-0.14 -0.084,-0.126 -0.07,-0.112 -0.07,-0.098 -0.056,-0.098 c -3.136,-4.802 -3.696,-9.198 -3.696,-9.268 0,-0.84 0.854,-0.84 1.4,-0.84 1.176,0 1.246,0.14 1.526,1.4 1.624,6.832 5.726,12.698 13.608,15.904 0.826,0.266 1.05,0.42 1.05,0.896 0,0.49 -0.42,0.7 -0.574,0.77 -3.052,1.19 -11.508,4.69 -14.14,16.408 -0.224,0.826 -0.294,1.022 -1.47,1.022 -0.546,0 -1.4,0 -1.4,-0.826 0,-0.126 0.63,-4.522 3.57,-9.212 1.4,-2.072 3.402,-4.522 6.398,-6.762 h -51.814 c -1.246,0 -2.52,0 -2.52,-1.4 0,-1.4 1.274,-1.4 2.52,-1.4 z"
           inkscape:connector-curvature="0"
           style="fill:#ff0000;fill-opacity:1;stroke-width:0" /><path
           id="path7835"
           d="m 653.84398,351.37057 -0.266,-0.42 -0.252,-0.406 -0.266,-0.392 -0.266,-0.364 -0.252,-0.35 -0.266,-0.322 -0.252,-0.308 -0.266,-0.294 -0.266,-0.28 -0.252,-0.252 -0.266,-0.238 -0.266,-0.224 -0.266,-0.21 -0.252,-0.196 -0.266,-0.182 -0.266,-0.168 -0.266,-0.154 -0.266,-0.14 -0.266,-0.126 -0.266,-0.126 -0.266,-0.098 -0.28,-0.098 -0.266,-0.098 -0.266,-0.07 -0.28,-0.07 -0.28,-0.056 -0.266,-0.056 -0.28,-0.042 -0.574,-0.07 -0.56,-0.042 c -0.854,-0.07 -1.47,-0.07 -1.47,-1.4 0,-0.42 0.35,-0.77 0.896,-0.77 1.89,0 4.046,0.224 5.992,0.224 2.296,0 4.746,-0.224 6.986,-0.224 0.406,0 1.33,0 1.33,1.33 0,0.77 -0.63,0.84 -1.12,0.84 -1.61,0.126 -3.276,0.7 -3.276,2.422 0,0.854 0.42,1.624 0.966,2.576 l 5.306,8.96 h 17.5 l -0.196,2.142 h -15.988 l 13.762,23.03 2.226,-23.03 0.196,-2.142 c 0.154,-1.47 1.12,-10.962 1.12,-11.662 0,-2.1 -3.626,-2.296 -5.012,-2.296 -0.98,0 -1.68,0 -1.68,-1.4 0,-0.77 0.826,-0.77 0.98,-0.77 2.842,0 5.866,0.224 8.708,0.224 1.75,0 6.146,-0.224 7.896,-0.224 0.42,0 1.246,0 1.246,1.4 0,0.77 -0.7,0.77 -1.596,0.77 -4.326,0 -4.326,0.476 -4.55,2.506 l -4.242,43.582 c -0.154,1.4 -0.154,1.68 -1.33,1.68 -1.12,0 -1.386,-0.476 -1.82,-1.176 z"
           inkscape:connector-curvature="0"
           style="fill:#ff0000;fill-opacity:1;stroke-width:0" /><path
           id="path7837"
           d="m 704.76198,348.79457 -0.07,-0.252 -0.07,-0.238 -0.056,-0.224 -0.056,-0.21 -0.07,-0.21 -0.056,-0.182 -0.07,-0.182 -0.07,-0.168 -0.07,-0.154 -0.084,-0.154 -0.098,-0.14 -0.098,-0.126 -0.112,-0.112 -0.112,-0.112 -0.14,-0.112 -0.14,-0.084 -0.154,-0.098 -0.182,-0.07 -0.196,-0.07 -0.196,-0.07 -0.238,-0.056 -0.112,-0.028 -0.126,-0.014 -0.126,-0.028 -0.14,-0.014 -0.14,-0.028 -0.154,-0.014 -0.154,-0.014 -0.154,-0.014 -0.168,-0.014 -0.168,-0.014 -0.168,-0.014 -0.196,-0.014 -0.182,-0.014 h -0.196 l -0.21,-0.014 h -0.21 l -0.21,-0.014 h -0.224 -0.238 -0.238 -0.238 -0.266 c -1.176,0 -1.876,0 -1.876,-1.4 0,-0.77 0.63,-0.77 1.876,-0.77 h 24.906 c 11.018,0 19.25,8.218 19.25,15.078 0,4.998 -4.06,9.044 -10.808,9.814 7.252,1.33 14.588,6.496 14.588,13.132 0,5.152 -4.62,9.618 -12.992,9.618 l -0.966,-2.17 c 6.118,0 7.588,-4.102 7.588,-7.168 0,-6.146 -5.992,-12.782 -14.504,-12.782 h -10.164 l -0.42,-1.526 h 13.174 c 6.692,0 8.022,-5.166 8.022,-8.162 0,-6.916 -6.216,-13.664 -14.434,-13.664 h -9.492 c -0.966,0 -1.12,0 -1.54,0.056 -0.7,0.07 -0.896,0.14 -0.896,0.7 0,0.196 0,0.35 0.35,1.596 l 4.816,19.474 0.42,1.526 4.298,17.304 c 0.644,2.436 0.77,2.646 3.794,2.646 h 8.988 l 0.966,2.17 h -23.436 c -1.302,0 -2.002,0 -2.002,-1.4 0,-0.77 0.602,-0.77 1.946,-0.77 0.126,0 1.456,0 2.646,-0.126 1.246,-0.154 1.876,-0.224 1.876,-1.12 0,-0.28 -0.07,-0.504 -0.28,-1.33 z"
           inkscape:connector-curvature="0"
           style="fill:#ff0000;fill-opacity:1;stroke-width:0" /><path
           id="path7839"
           d="m 790.32998,383.59857 -0.056,0.112 -0.056,0.098 -0.042,0.098 -0.056,0.098 -0.042,0.084 -0.056,0.084 -0.042,0.084 -0.056,0.07 -0.042,0.07 -0.042,0.07 -0.056,0.056 -0.042,0.056 -0.042,0.056 -0.056,0.056 -0.042,0.042 -0.056,0.042 -0.042,0.042 -0.042,0.028 -0.056,0.042 -0.042,0.028 -0.056,0.028 -0.042,0.014 -0.056,0.028 -0.056,0.014 -0.042,0.014 -0.056,0.014 -0.056,0.014 -0.056,0.014 h -0.042 -0.056 l -0.056,0.014 h -0.056 c -0.924,0 -1.12,-0.504 -1.54,-1.47 l -17.36,-39.004 c -0.42,-0.896 -0.504,-1.022 -0.504,-1.372 0,-0.77 0.63,-1.4 1.4,-1.4 0.476,0 1.05,0.126 1.596,1.456 l 16.408,36.974 16.38,-36.974 c 0.63,-1.456 1.33,-1.456 1.596,-1.456 0.784,0 1.4,0.63 1.4,1.4 0,0.126 0,0.252 -0.42,1.106 z"
           inkscape:connector-curvature="0"
           style="fill:#ff0000;fill-opacity:1;stroke-width:0" /><path
           id="path7841"
           d="m 873.46198,407.09057 0.224,0.014 h 0.224 0.21 l 0.112,0.014 h 0.112 l 0.098,0.014 0.112,0.014 0.098,0.014 0.098,0.014 0.098,0.014 0.098,0.028 0.098,0.028 0.084,0.028 0.084,0.028 0.084,0.042 0.084,0.042 0.07,0.056 0.07,0.056 0.0557,0.056 0.07,0.07 0.0414,0.07 0.0286,0.028 0.0286,0.042 0.0143,0.042 0.0285,0.042 0.0143,0.042 0.0285,0.056 0.0143,0.042 0.0143,0.042 0.0143,0.056 0.0143,0.056 v 0.056 l 0.0143,0.056 v 0.056 l 0.0143,0.056 v 0.07 0.056 c 0,1.4 -1.274,1.4 -2.45,1.4 h -37.73 c -1.19,0 -2.436,0 -2.436,-1.4 0,-1.4 1.246,-1.4 2.436,-1.4 z"
           inkscape:connector-curvature="0"
           style="fill:#ff0000;fill-opacity:1;stroke-width:0" /><path
           id="path7843"
           d="m 902.86198,407.09057 0.21,0.014 h 0.224 0.224 l 0.112,0.014 h 0.098 l 0.112,0.014 0.098,0.014 0.112,0.014 0.098,0.014 0.098,0.014 0.098,0.028 0.084,0.028 0.098,0.028 0.084,0.028 0.084,0.042 0.07,0.042 0.07,0.056 0.07,0.056 0.07,0.056 0.0557,0.07 0.0557,0.07 0.0285,0.028 0.0286,0.042 0.0143,0.042 0.0286,0.042 0.0143,0.042 0.0143,0.056 0.0143,0.042 0.0143,0.042 0.0143,0.056 0.0143,0.056 0.0143,0.056 v 0.056 l 0.0143,0.056 v 0.056 0.07 l 0.0143,0.056 c 0,1.4 -1.274,1.4 -2.45,1.4 h -37.74401 c -1.176,0 -2.422,0 -2.422,-1.4 0,-1.4 1.246,-1.4 2.422,-1.4 z"
           inkscape:connector-curvature="0"
           style="fill:#ff0000;fill-opacity:1;stroke-width:0" /><path
           id="path7845"
           d="m 944.28798,407.09057 -0.35,-0.266 -0.336,-0.28 -0.336,-0.266 -0.322,-0.266 -0.308,-0.28 -0.294,-0.266 -0.294,-0.266 -0.266,-0.252 -0.266,-0.266 -0.266,-0.252 -0.238,-0.252 -0.238,-0.238 -0.224,-0.252 -0.224,-0.238 -0.196,-0.224 -0.196,-0.224 -0.196,-0.224 -0.168,-0.224 -0.168,-0.196 -0.154,-0.21 -0.154,-0.196 -0.14,-0.182 -0.14,-0.182 -0.112,-0.168 -0.126,-0.154 -0.098,-0.154 -0.098,-0.14 -0.084,-0.14 -0.084,-0.126 -0.07,-0.112 -0.07,-0.098 -0.056,-0.098 c -3.136,-4.802 -3.696,-9.198 -3.696,-9.268 0,-0.84 0.854,-0.84 1.4,-0.84 1.176,0 1.246,0.14 1.526,1.4 1.624,6.832 5.726,12.698 13.608,15.904 0.826,0.266 1.05,0.42 1.05,0.896 0,0.49 -0.42,0.7 -0.574,0.77 -3.052,1.19 -11.508,4.69 -14.14,16.408 -0.224,0.826 -0.294,1.022 -1.47,1.022 -0.546,0 -1.4,0 -1.4,-0.826 0,-0.126 0.63,-4.522 3.57,-9.212 1.4,-2.072 3.402,-4.522 6.398,-6.762 h -51.81397 c -1.246,0 -2.52,0 -2.52,-1.4 0,-1.4 1.274,-1.4 2.52,-1.4 z"
           inkscape:connector-curvature="0"
           style="fill:#ff0000;fill-opacity:1;stroke-width:0" /><path
           id="path7847"
           d="m 839.98798,351.37057 -0.252,-0.42 -0.266,-0.406 -0.266,-0.392 -0.252,-0.364 -0.266,-0.35 -0.266,-0.322 -0.252,-0.308 -0.266,-0.294 -0.266,-0.28 -0.252,-0.252 -0.266,-0.238 -0.266,-0.224 -0.252,-0.21 -0.266,-0.196 -0.266,-0.182 -0.266,-0.168 -0.266,-0.154 -0.266,-0.14 -0.266,-0.126 -0.266,-0.126 -0.266,-0.098 -0.28,-0.098 -0.266,-0.098 -0.266,-0.07 -0.28,-0.07 -0.28,-0.056 -0.266,-0.056 -0.28,-0.042 -0.56,-0.07 -0.574,-0.042 c -0.854,-0.07 -1.47,-0.07 -1.47,-1.4 0,-0.42 0.35,-0.77 0.896,-0.77 1.876,0 4.046,0.224 5.992,0.224 2.296,0 4.746,-0.224 6.986,-0.224 0.406,0 1.33,0 1.33,1.33 0,0.77 -0.63,0.84 -1.12,0.84 -1.61,0.126 -3.276,0.7 -3.276,2.422 0,0.854 0.42,1.624 0.966,2.576 l 5.306,8.96 h 17.5 l -0.196,2.142 h -15.988 l 13.762,23.03 2.226,-23.03 0.196,-2.142 c 0.154,-1.47 1.12,-10.962 1.12,-11.662 0,-2.1 -3.626,-2.296 -5.012,-2.296 -0.98,0 -1.68,0 -1.68,-1.4 0,-0.77 0.826,-0.77 0.98,-0.77 2.842,0 5.866,0.224 8.708,0.224 1.75,0 6.146,-0.224 7.896,-0.224 0.42,0 1.246,0 1.246,1.4 0,0.77 -0.7,0.77 -1.596,0.77 -4.326,0 -4.326,0.476 -4.55,2.506 l -4.242,43.582 c -0.154,1.4 -0.154,1.68 -1.33,1.68 -1.12,0 -1.386,-0.476 -1.82,-1.176 z"
           inkscape:connector-curvature="0"
           style="fill:#ff0000;fill-opacity:1;stroke-width:0" /><path
           id="path7849"
           d="m 900.87398,365.39857 0.28,1.792 4.746,18.984 c 0.616,2.436 0.77,2.646 3.766,2.646 h 6.692 c 5.796,0 9.506,-1.876 9.506,-6.692 0,-2.73 -1.4,-8.722 -4.116,-11.242 -3.5,-3.122 -7.686,-3.696 -10.766,-3.696 h -9.828 l -0.28,-1.792 h 11.858 c 9.912,0 19.6,7.238 19.6,15.05 0,5.376 -4.592,10.542 -13.734,10.542 h -22.596 c -1.344,0 -2.1,0 -2.1,-1.33 0,-0.84 0.63,-0.84 2.03,-0.84 0.896,0 2.17,-0.056 2.996,-0.126 1.12,-0.154 1.526,-0.35 1.526,-1.12 0,-0.28 -0.0557,-0.504 -0.28,-1.33 l -9.338,-37.45 c -0.7,-2.73 -0.826,-3.276 -6.342,-3.276 -1.19,0 -1.946,0 -1.946,-1.344 0,-0.826 0.826,-0.826 1.022,-0.826 1.974,0 6.916,0.224 8.862,0.224 1.47,0 2.996,-0.098 4.466,-0.098 1.554,0 3.08,-0.126 4.55,-0.126 0.476,0 1.372,0 1.372,1.4 0,0.77 -0.616,0.77 -1.946,0.77 -2.576,0 -4.522,0 -4.522,1.246 0,0.406 0.126,0.756 0.196,1.176 z"
           inkscape:connector-curvature="0"
           style="fill:#ff0000;fill-opacity:1;stroke-width:0" /><path
           id="path7851"
           d="m 949.22998,341.80857 h -1.652 c -0.14,-1.064 -0.644,-3.962 -1.274,-4.438 -0.364,-0.28 -4.13,-0.28 -4.816,-0.28 h -8.988 c 5.124,4.522 6.832,5.88 9.758,8.176 3.612,2.884 6.972,5.908 6.972,10.542 0,5.908 -5.152,9.52 -11.41,9.52 -6.048,0 -10.15,-4.242 -10.15,-8.736 0,-2.492 2.1,-2.73 2.604,-2.73 1.148,0 2.576,0.84 2.576,2.59 0,0.868 -0.35,2.576 -2.884,2.576 1.512,3.458 4.83,4.522 7.126,4.522 4.886,0 7.42,-3.78 7.42,-7.742 0,-4.242 -3.024,-7.616 -4.592,-9.366 l -11.746,-11.606 c -0.504,-0.434 -0.504,-0.546 -0.504,-1.904 h 20.104 z"
           inkscape:connector-curvature="0"
           style="fill:#ff0000;fill-opacity:1;stroke-width:0" /><path
           id="path7841-6"
           d="m 793.68607,561.64176 0.11429,0.007 h 0.11428 0.10714 l 0.0571,0.007 h 0.0571 l 0.05,0.007 0.0571,0.007 0.05,0.007 0.05,0.007 0.05,0.007 0.05,0.0143 0.05,0.0143 0.0429,0.0143 0.0429,0.0143 0.0428,0.0214 0.0429,0.0214 0.0357,0.0286 0.0357,0.0286 0.0286,0.0286 0.0357,0.0357 0.0214,0.0357 0.0143,0.0143 0.0143,0.0214 0.007,0.0214 0.0143,0.0214 0.007,0.0214 0.0143,0.0286 0.007,0.0214 0.007,0.0214 0.007,0.0286 0.007,0.0286 v 0.0286 l 0.007,0.0286 v 0.0286 l 0.007,0.0286 v 0.0357 0.0286 c 9e-5,0.71429 -0.64991,0.71429 -1.24991,0.71429 h -19.25 c -0.60715,0 -1.24286,0 -1.24286,-0.71429 0,-0.71428 0.63571,-0.71428 1.24286,-0.71428 z"
           inkscape:connector-curvature="0"
           style="font-style:normal;font-variant:normal;font-weight:normal;font-stretch:normal;letter-spacing:normal;word-spacing:normal;text-anchor:start;fill:#ff0000;fill-opacity:1;fill-rule:evenodd;stroke:#000000;stroke-width:0;stroke-linecap:butt;stroke-linejoin:miter;stroke-miterlimit:10.43299961;stroke-dasharray:none;stroke-dashoffset:0;stroke-opacity:1" /><path
           id="path7843-3"
           d="m 827.48548,580.7624 0.16131,0.0107 h 0.17204 0.17206 l 0.086,0.0108 h 0.0753 l 0.086,0.0108 0.0753,0.0108 0.086,0.0107 0.0753,0.0108 0.0753,0.0108 0.0753,0.0215 0.0645,0.0215 0.0753,0.0215 0.0645,0.0215 0.0645,0.0323 0.0538,0.0323 0.0538,0.043 0.0538,0.043 0.0538,0.043 0.043,0.0538 0.043,0.0538 0.0213,0.0215 0.0213,0.0323 0.0108,0.0323 0.0213,0.0323 0.0107,0.0323 0.0108,0.043 0.0107,0.0323 0.0108,0.0323 0.0108,0.043 0.0107,0.043 0.0108,0.043 v 0.043 l 0.0108,0.043 v 0.043 0.0538 l 0.0107,0.043 c 0,1.07526 -0.97847,1.07526 -1.8817,1.07526 h -28.9874 c -0.90322,0 -1.8602,0 -1.8602,-1.07526 0,-1.07526 0.95698,-1.07526 1.8602,-1.07526 z"
           inkscape:connector-curvature="0"
           style="font-style:normal;font-variant:normal;font-weight:normal;font-stretch:normal;letter-spacing:normal;word-spacing:normal;text-anchor:start;fill:#ff0000;fill-opacity:1;fill-rule:evenodd;stroke:#000000;stroke-width:0;stroke-linecap:butt;stroke-linejoin:miter;stroke-miterlimit:10.43299961;stroke-dasharray:none;stroke-dashoffset:0;stroke-opacity:1" /><path
           id="path7845-2"
           d="m 859.30236,580.7624 -0.26883,-0.2043 -0.25804,-0.21505 -0.25805,-0.2043 -0.24732,-0.2043 -0.23658,-0.21505 -0.22579,-0.2043 -0.22581,-0.2043 -0.20429,-0.19354 -0.20429,-0.2043 -0.20429,-0.19354 -0.18279,-0.19355 -0.18277,-0.1828 -0.17205,-0.19355 -0.17204,-0.18279 -0.15054,-0.17204 -0.15053,-0.17204 -0.15054,-0.17204 -0.12902,-0.17204 -0.12903,-0.15054 -0.11829,-0.16129 -0.11829,-0.15053 -0.10752,-0.13979 -0.10753,-0.13978 -0.086,-0.12903 -0.0968,-0.11828 -0.0753,-0.11828 -0.0753,-0.10753 -0.0645,-0.10752 -0.0645,-0.0968 -0.0538,-0.086 -0.0538,-0.0753 -0.043,-0.0753 c -2.40858,-3.68813 -2.83868,-7.06444 -2.83868,-7.1182 0,-0.64516 0.65591,-0.64516 1.07526,-0.64516 0.90321,0 0.95697,0.10753 1.17202,1.07526 1.2473,5.24725 4.39781,9.75258 10.45151,12.21492 0.6344,0.2043 0.80644,0.32258 0.80644,0.68817 0,0.37634 -0.32257,0.53763 -0.44085,0.59139 -2.34411,0.91397 -8.83866,3.60212 -10.86015,12.60202 -0.17204,0.6344 -0.2258,0.78494 -1.12902,0.78494 -0.41935,0 -1.07525,0 -1.07525,-0.6344 0,-0.0968 0.48386,-3.47309 2.7419,-7.0752 1.07526,-1.59138 2.61287,-3.47308 4.91393,-5.19349 h -39.79528 c -0.95698,0 -1.93547,0 -1.93547,-1.07526 0,-1.07526 0.97849,-1.07526 1.93547,-1.07526 z"
           inkscape:connector-curvature="0"
           style="font-style:normal;font-variant:normal;font-weight:normal;font-stretch:normal;letter-spacing:normal;word-spacing:normal;text-anchor:start;fill:#ff0000;fill-opacity:1;fill-rule:evenodd;stroke:#000000;stroke-width:0;stroke-linecap:butt;stroke-linejoin:miter;stroke-miterlimit:10.43299961;stroke-dasharray:none;stroke-dashoffset:0;stroke-opacity:1" /><path
           id="path7847-0"
           d="m 779.19567,537.96715 -0.19355,-0.32258 -0.2043,-0.31182 -0.2043,-0.30108 -0.19354,-0.27956 -0.2043,-0.26882 -0.2043,-0.2473 -0.19355,-0.23656 -0.2043,-0.22581 -0.2043,-0.21505 -0.19354,-0.19354 -0.2043,-0.1828 -0.2043,-0.17204 -0.19355,-0.16129 -0.2043,-0.15053 -0.20429,-0.13978 -0.2043,-0.12904 -0.20432,-0.11828 -0.20429,-0.10752 -0.2043,-0.0968 -0.2043,-0.0968 -0.2043,-0.0753 -0.21505,-0.0753 -0.2043,-0.0753 -0.2043,-0.0538 -0.21505,-0.0538 -0.21505,-0.043 -0.20429,-0.043 -0.21506,-0.0323 -0.43011,-0.0538 -0.44085,-0.0323 c -0.6559,-0.0538 -1.12901,-0.0538 -1.12901,-1.07493 0,-0.32258 0.26881,-0.5914 0.68816,-0.5914 1.44085,0 3.1075,0.17205 4.6021,0.17205 1.76343,0 3.64513,-0.17205 5.36554,-0.17205 0.31183,0 1.0215,0 1.0215,1.0215 0,0.59139 -0.48387,0.64515 -0.86021,0.64515 -1.23655,0.0968 -2.5161,0.53763 -2.5161,1.8602 0,0.65591 0.32257,1.2473 0.74192,1.97848 l 4.07523,6.88165 h 13.44072 l -0.15053,1.64514 h -12.27944 l 10.56977,17.68798 1.70967,-17.68798 0.15053,-1.64514 c 0.11828,-1.12903 0.86021,-8.41928 0.86021,-8.9569 0,-1.61289 -2.78492,-1.76343 -3.84943,-1.76343 -0.75268,0 -1.2903,0 -1.2903,-1.07525 0,-0.5914 0.6344,-0.5914 0.75267,-0.5914 2.18278,0 4.50534,0.17205 6.68811,0.17205 1.34407,0 4.72038,-0.17205 6.06445,-0.17205 0.32258,0 0.95698,0 0.95698,1.07526 0,0.59139 -0.53763,0.59139 -1.22579,0.59139 -3.32255,0 -3.32255,0.3656 -3.49459,1.92472 l -3.25803,33.47276 c -0.11828,1.07526 -0.11828,1.29032 -1.0215,1.29032 -0.8602,0 -1.0645,-0.3656 -1.39783,-0.90322 z"
           inkscape:connector-curvature="0"
           style="font-style:normal;font-variant:normal;font-weight:normal;font-stretch:normal;letter-spacing:normal;word-spacing:normal;text-anchor:start;fill:#ff0000;fill-opacity:1;fill-rule:evenodd;stroke:#000000;stroke-width:0;stroke-linecap:butt;stroke-linejoin:miter;stroke-miterlimit:10.43299961;stroke-dasharray:none;stroke-dashoffset:0;stroke-opacity:1" /><path
           id="path7849-6"
           d="m 825.95862,548.74123 0.21506,1.37633 3.64513,14.58049 c 0.47311,1.87095 0.59139,2.03224 2.89244,2.03224 h 5.13973 c 4.45156,0 7.301,-1.44085 7.301,-5.13973 0,-2.09675 -1.07526,-6.69886 -3.16126,-8.63432 -2.68814,-2.39782 -5.90316,-2.83868 -8.26873,-2.83868 h -7.54831 l -0.21506,-1.37633 h 9.10743 c 7.61283,0 15.05361,5.55909 15.05361,11.55902 0,4.12899 -3.52685,8.09669 -10.54828,8.09669 h -17.35466 c -1.03224,0 -1.61289,0 -1.61289,-1.0215 0,-0.64515 0.48388,-0.64515 1.55913,-0.64515 0.68817,0 1.66665,-0.043 2.30105,-0.0968 0.86021,-0.11828 1.17203,-0.26882 1.17203,-0.86021 0,-0.21505 -0.043,-0.38709 -0.21507,-1.02149 L 818.249,535.98868 c -0.53762,-2.09676 -0.6344,-2.51611 -4.87091,-2.51611 -0.91396,0 -1.49461,0 -1.49461,-1.03224 0,-0.63441 0.6344,-0.63441 0.78493,-0.63441 1.51612,0 5.31177,0.17205 6.80638,0.17205 1.12902,0 2.30106,-0.0753 3.43007,-0.0753 1.19354,0 2.36558,-0.0968 3.4946,-0.0968 0.3656,0 1.05375,0 1.05375,1.07526 0,0.59139 -0.4731,0.59139 -1.49461,0.59139 -1.97847,0 -3.47309,0 -3.47309,0.95698 0,0.31183 0.0968,0.58064 0.15054,0.90322 z"
           inkscape:connector-curvature="0"
           style="font-style:normal;font-variant:normal;font-weight:normal;font-stretch:normal;letter-spacing:normal;word-spacing:normal;text-anchor:start;fill:#ff0000;fill-opacity:1;fill-rule:evenodd;stroke:#000000;stroke-width:0;stroke-linecap:butt;stroke-linejoin:miter;stroke-miterlimit:10.43299961;stroke-dasharray:none;stroke-dashoffset:0;stroke-opacity:1" /><path
           id="path7851-1"
           d="m 863.09801,530.62314 h -1.2688 c -0.10753,-0.8172 -0.49462,-3.04297 -0.97848,-3.40857 -0.27956,-0.21505 -3.17201,-0.21505 -3.69889,-0.21505 h -6.90316 c 3.93545,3.47309 5.24726,4.51608 7.49455,6.27951 2.77417,2.21503 5.35478,4.53759 5.35478,8.09669 0,4.53758 -3.95694,7.31175 -8.76334,7.31175 -4.64511,0 -7.79562,-3.25803 -7.79562,-6.70961 0,-1.91396 1.61288,-2.09675 1.99998,-2.09675 0.88171,0 1.97847,0.64516 1.97847,1.98923 0,0.66665 -0.26882,1.97847 -2.21503,1.97847 1.16128,2.65588 3.70964,3.47308 5.47306,3.47308 3.75265,0 5.69887,-2.9032 5.69887,-5.94617 0,-3.25803 -2.32256,-5.8494 -3.52684,-7.19348 l -9.02142,-8.91388 c -0.38707,-0.33333 -0.38707,-0.41935 -0.38707,-1.46235 h 15.4407 z"
           inkscape:connector-curvature="0"
           style="font-style:normal;font-variant:normal;font-weight:normal;font-stretch:normal;letter-spacing:normal;word-spacing:normal;text-anchor:start;fill:#ff0000;fill-opacity:1;fill-rule:evenodd;stroke:#000000;stroke-width:0;stroke-linecap:butt;stroke-linejoin:miter;stroke-miterlimit:10.43299961;stroke-dasharray:none;stroke-dashoffset:0;stroke-opacity:1" /></g>    </g>
  </g>
</svg>
