<?xml version="1.0" encoding="UTF-8" standalone="no"?>
<!-- Created with Inkscape (http://www.inkscape.org/) -->

<svg
   xmlns:dc="http://purl.org/dc/elements/1.1/"
   xmlns:cc="http://creativecommons.org/ns#"
   xmlns:rdf="http://www.w3.org/1999/02/22-rdf-syntax-ns#"
   xmlns:svg="http://www.w3.org/2000/svg"
   xmlns="http://www.w3.org/2000/svg"
   xmlns:sodipodi="http://sodipodi.sourceforge.net/DTD/sodipodi-0.dtd"
   xmlns:inkscape="http://www.inkscape.org/namespaces/inkscape"
   width="140.69643mm"
   height="140.69644mm"
   viewBox="0 0 140.69643 140.69644"
   version="1.1"
   id="svg8"
   inkscape:version="0.92.3 (2405546, 2018-03-11)"
   sodipodi:docname="NormalVector.svg">
  <sodipodi:namedview
     id="base"
     pagecolor="#ffffff"
     bordercolor="#666666"
     borderopacity="1.0"
     inkscape:pageopacity="0.0"
     inkscape:pageshadow="2"
     inkscape:zoom="0.98994949"
     inkscape:cx="156.00698"
     inkscape:cy="221.97114"
     inkscape:document-units="mm"
     inkscape:current-layer="layer1"
     showgrid="false"
     inkscape:window-width="1920"
     inkscape:window-height="1012"
     inkscape:window-x="0"
     inkscape:window-y="32"
     inkscape:window-maximized="1"
     showguides="true"
     inkscape:guide-bbox="true"
     fit-margin-top="10"
     fit-margin-left="10"
     fit-margin-right="10"
     fit-margin-bottom="10">
    <sodipodi:guide
       position="58.924615,53.288281"
       orientation="0,1"
       id="guide1055"
       inkscape:locked="false" />
    <sodipodi:guide
       position="41.301474,47.429651"
       orientation="0,1"
       id="guide1072"
       inkscape:locked="false" />
    <sodipodi:guide
       position="47.434308,87.678393"
       orientation="1,0"
       id="guide1117"
       inkscape:locked="false" />
    <sodipodi:guide
       position="53.292951,87.678393"
       orientation="1,0"
       id="guide1119"
       inkscape:locked="false" />
    <sodipodi:guide
       position="53.292951,93.537023"
       orientation="0,1"
       id="guide1121"
       inkscape:locked="false" />
    <sodipodi:guide
       position="53.292951,87.678393"
       orientation="0,1"
       id="guide1123"
       inkscape:locked="false" />
    <sodipodi:guide
       position="87.48223,87.812033"
       orientation="1,0"
       id="guide1125"
       inkscape:locked="false" />
    <sodipodi:guide
       position="93.340861,87.812033"
       orientation="1,0"
       id="guide1127"
       inkscape:locked="false" />
  </sodipodi:namedview>
  <defs
     id="defs2">
    <marker
       inkscape:stockid="Arrow1Send"
       orient="auto"
       refY="0"
       refX="0"
       id="Arrow1Send"
       style="overflow:visible"
       inkscape:isstock="true">
      <path
         id="path1146"
         d="M 0,0 5,-5 -12.5,0 5,5 Z"
         style="fill:#ff0000;fill-opacity:1;fill-rule:evenodd;stroke:#ff0000;stroke-width:1.00000003pt;stroke-opacity:1"
         transform="matrix(-0.2,0,0,-0.2,-1.2,0)"
         inkscape:connector-curvature="0" />
    </marker>
    <marker
       inkscape:stockid="Arrow1Lend"
       orient="auto"
       refY="0"
       refX="0"
       id="marker2043"
       style="overflow:visible"
       inkscape:isstock="true">
      <path
         id="path2041"
         d="M 0,0 5,-5 -12.5,0 5,5 Z"
         style="fill:#ff0000;fill-opacity:1;fill-rule:evenodd;stroke:#fb0000;stroke-width:1.00000003pt;stroke-opacity:1"
         transform="matrix(-0.8,0,0,-0.8,-10,0)"
         inkscape:connector-curvature="0" />
    </marker>
    <marker
       inkscape:stockid="Arrow2Lend"
       orient="auto"
       refY="0"
       refX="0"
       id="marker2019"
       style="overflow:visible"
       inkscape:isstock="true">
      <path
         id="path2017"
         style="fill:#ff0000;fill-opacity:0.66666667;fill-rule:evenodd;stroke:#fb0000;stroke-width:0.625;stroke-linejoin:round;stroke-opacity:1"
         d="M 8.7185878,4.0337352 -2.2072895,0.01601326 8.7185884,-4.0017078 c -1.7454984,2.3720609 -1.7354408,5.6174519 -6e-7,8.035443 z"
         transform="matrix(-1.1,0,0,-1.1,-1.1,0)"
         inkscape:connector-curvature="0" />
    </marker>
    <marker
       inkscape:stockid="Arrow1Mend"
       orient="auto"
       refY="0"
       refX="0"
       id="Arrow1Mend"
       style="overflow:visible"
       inkscape:isstock="true">
      <path
         id="path1140"
         d="M 0,0 5,-5 -12.5,0 5,5 Z"
         style="fill:#ff0000;fill-opacity:0.66666667;fill-rule:evenodd;stroke:#fb0000;stroke-width:1.00000003pt;stroke-opacity:1"
         transform="matrix(-0.4,0,0,-0.4,-4,0)"
         inkscape:connector-curvature="0" />
    </marker>
    <marker
       inkscape:stockid="Arrow2Lend"
       orient="auto"
       refY="0"
       refX="0"
       id="Arrow2Lend"
       style="overflow:visible"
       inkscape:isstock="true">
      <path
         id="path1152"
         style="fill:#000000;fill-opacity:1;fill-rule:evenodd;stroke:#000000;stroke-width:0.625;stroke-linejoin:round;stroke-opacity:1"
         d="M 8.7185878,4.0337352 -2.2072895,0.01601326 8.7185884,-4.0017078 c -1.7454984,2.3720609 -1.7354408,5.6174519 -6e-7,8.035443 z"
         transform="matrix(-1.1,0,0,-1.1,-1.1,0)"
         inkscape:connector-curvature="0" />
    </marker>
    <marker
       inkscape:stockid="Arrow1Lend"
       orient="auto"
       refY="0"
       refX="0"
       id="Arrow1Lend"
       style="overflow:visible"
       inkscape:isstock="true">
      <path
         id="path1134"
         d="M 0,0 5,-5 -12.5,0 5,5 Z"
         style="fill:#00f5ff;fill-opacity:0.66666667;fill-rule:evenodd;stroke:#000000;stroke-width:1.00000003pt;stroke-opacity:1"
         transform="matrix(-0.8,0,0,-0.8,-10,0)"
         inkscape:connector-curvature="0" />
    </marker>
    <marker
       inkscape:stockid="Arrow1Send"
       orient="auto"
       refY="0"
       refX="0"
       id="Arrow1Send-3"
       style="overflow:visible"
       inkscape:isstock="true">
      <path
         inkscape:connector-curvature="0"
         id="path1146-6"
         d="M 0,0 5,-5 -12.5,0 5,5 Z"
         style="fill:#ff0000;fill-opacity:1;fill-rule:evenodd;stroke:#fb0000;stroke-width:1.00000003pt;stroke-opacity:1"
         transform="matrix(-0.2,0,0,-0.2,-1.2,0)" />
    </marker>
  </defs>
  <metadata
     id="metadata5">
    <rdf:RDF>
      <cc:Work
         rdf:about="">
        <dc:format>image/svg+xml</dc:format>
        <dc:type
           rdf:resource="http://purl.org/dc/dcmitype/StillImage" />
        <dc:title></dc:title>
      </cc:Work>
    </rdf:RDF>
  </metadata>
  <g
     inkscape:label="Capa 1"
     inkscape:groupmode="layer"
     id="layer1"
     transform="translate(-36.041904,-65.960884)">
    <rect
       style="fill:none;stroke:#000000;stroke-width:0.5;stroke-linecap:round;stroke-miterlimit:4;stroke-dasharray:none;stroke-opacity:1"
       id="rect815"
       width="40.065475"
       height="40.065475"
       x="46.291908"
       y="156.34184" />
    <rect
       style="fill:none;stroke:#000000;stroke-width:0.5;stroke-linecap:round;stroke-miterlimit:4;stroke-dasharray:none;stroke-opacity:1"
       id="rect815-3"
       width="40.065475"
       height="40.065475"
       x="86.357384"
       y="156.34184" />
    <rect
       style="fill:none;stroke:#000000;stroke-width:0.5;stroke-linecap:round;stroke-miterlimit:4;stroke-dasharray:none;stroke-opacity:1"
       id="rect815-6"
       width="40.065475"
       height="40.065475"
       x="126.42286"
       y="156.34184" />
    <rect
       style="fill:none;stroke:#000000;stroke-width:0.5;stroke-linecap:round;stroke-miterlimit:4;stroke-dasharray:none;stroke-opacity:1"
       id="rect815-7"
       width="40.065475"
       height="40.065475"
       x="126.42286"
       y="116.27636" />
    <rect
       style="fill:#10b700;fill-opacity:0.415493;stroke:#000000;stroke-width:0.5;stroke-linecap:round;stroke-miterlimit:4;stroke-dasharray:none;stroke-opacity:1"
       id="rect815-5"
       width="40.065475"
       height="40.065475"
       x="86.357384"
       y="116.27636" />
    <rect
       style="fill:none;stroke:#000000;stroke-width:0.5;stroke-linecap:round;stroke-miterlimit:4;stroke-dasharray:none;stroke-opacity:1"
       id="rect815-35"
       width="40.065475"
       height="40.065475"
       x="46.291904"
       y="116.27636" />
    <rect
       style="fill:none;stroke:#000000;stroke-width:0.5;stroke-linecap:round;stroke-miterlimit:4;stroke-dasharray:none;stroke-opacity:1"
       id="rect815-62"
       width="40.065475"
       height="40.065475"
       x="46.291904"
       y="76.210884" />
    <rect
       style="fill:none;stroke:#000000;stroke-width:0.5;stroke-linecap:round;stroke-miterlimit:4;stroke-dasharray:none;stroke-opacity:1"
       id="rect815-9"
       width="40.065475"
       height="40.065475"
       x="86.357391"
       y="76.210892" />
    <rect
       style="fill:none;stroke:#000000;stroke-width:0.5;stroke-linecap:round;stroke-miterlimit:4;stroke-dasharray:none;stroke-opacity:1"
       id="rect815-1"
       width="40.065475"
       height="40.065475"
       x="126.42286"
       y="76.210884" />
    <g
       id="g889"
       transform="matrix(0.46724604,0,0,0.46724604,37.656359,106.22858)">
      <g
         id="content"
         transform="matrix(0.3,0,0,-0.3,-52.5,222.75)"
         xml:space="preserve"
         stroke-miterlimit="10.433"
         font-style="normal"
         font-variant="normal"
         font-weight="normal"
         font-stretch="normal"
         font-size-adjust="none"
         letter-spacing="normal"
         word-spacing="normal"
         style="font-style:normal;font-variant:normal;font-weight:normal;font-stretch:normal;letter-spacing:normal;word-spacing:normal;text-anchor:start;fill:none;fill-opacity:1;fill-rule:evenodd;stroke:#000000;stroke-linecap:butt;stroke-linejoin:miter;stroke-miterlimit:10.43299961;stroke-dasharray:none;stroke-dashoffset:0;stroke-opacity:1"><path
           d="m 475.35,440.87 -0.03,0.06 -0.02,0.06 -0.02,0.06 -0.02,0.05 -0.02,0.06 -0.02,0.05 -0.02,0.05 -0.02,0.04 -0.03,0.05 -0.02,0.04 -0.02,0.05 -0.02,0.04 -0.03,0.03 -0.02,0.04 -0.03,0.03 -0.03,0.04 -0.03,0.03 -0.03,0.03 -0.03,0.02 -0.04,0.03 -0.04,0.02 -0.04,0.02 -0.04,0.02 -0.04,0.02 -0.05,0.01 -0.05,0.01 -0.06,0.02 h -0.06 l -0.06,0.01 -0.06,0.01 h -0.07 -0.04 -0.03 c -0.8,0 -0.96,-0.3 -1.21,-1 l -10.31,-29.8 c -0.89,-2.53 -2.89,-3.28 -5.58,-3.32 v -1.55 c 1.14,0.05 3.28,0.16 5.08,0.16 1.55,0 4.14,-0.11 5.74,-0.16 v 1.55 c -2.49,0 -3.74,1.25 -3.74,2.53 0,0.15 0.05,0.65 0.1,0.75 l 2.29,6.53 0.55,1.55 5.58,16.18 5.62,-16.18 h -11.2 l -0.55,-1.55 h 12.3 l 2.64,-7.63 c 0.06,-0.2 0.16,-0.5 0.16,-0.68 0,-1.5 -2.8,-1.5 -4.14,-1.5 v -1.55 c 1.79,0.16 5.28,0.16 7.18,0.16 2.14,0 4.42,-0.07 6.52,-0.16 v 1.55 h -0.89 c -3,0 -3.69,0.34 -4.24,1.98 z"
           id="path886"
           inkscape:connector-curvature="0"
           style="fill:#000000;stroke-width:0" /></g>    </g>
    <g
       id="g927"
       transform="matrix(0.48976392,0,0,0.48976392,89.487705,103.95675)">
      <g
         word-spacing="normal"
         letter-spacing="normal"
         font-size-adjust="none"
         font-stretch="normal"
         font-weight="normal"
         font-variant="normal"
         font-style="normal"
         stroke-miterlimit="10.433"
         xml:space="preserve"
         transform="matrix(0.3,0,0,-0.3,-52.5,222.75)"
         id="g925"
         style="font-style:normal;font-variant:normal;font-weight:normal;font-stretch:normal;letter-spacing:normal;word-spacing:normal;text-anchor:start;fill:none;fill-opacity:1;fill-rule:evenodd;stroke:#000000;stroke-linecap:butt;stroke-linejoin:miter;stroke-miterlimit:10.43299961;stroke-dasharray:none;stroke-dashoffset:0;stroke-opacity:1"><path
           id="path923"
           d="m 478.33,423.98 0.45,0.1 0.44,0.1 0.44,0.13 0.42,0.13 0.41,0.14 0.4,0.16 0.4,0.17 0.38,0.18 0.37,0.19 0.36,0.2 0.35,0.21 0.33,0.21 0.32,0.23 0.31,0.24 0.3,0.25 0.28,0.25 0.27,0.26 0.25,0.27 0.24,0.28 0.22,0.28 0.21,0.29 0.19,0.3 0.17,0.3 0.16,0.31 0.14,0.32 0.12,0.32 0.11,0.32 0.09,0.33 0.06,0.34 0.05,0.33 0.03,0.34 0.01,0.35 c 0,4.33 -4.59,8.42 -11.06,8.42 l -0.36,-1.55 c 4.85,0 6.58,-4.23 6.58,-6.87 0,-3.19 -2.44,-7.38 -7.97,-7.38 h -7.22 v -1.09 h 9.36 c 4.94,0 7.03,-4.64 7.03,-7.97 0,-3.55 -2.59,-7.62 -7.72,-7.62 v 0 h -6.23 c -2.34,0 -2.44,0.34 -2.44,1.98 v 13.61 1.09 12.25 c 0,1.66 0.1,2 2.44,2 h 6.17 l 0.36,1.55 h -18.23 v -1.55 h 1.18 c 3.85,0 3.94,-0.54 3.94,-2.34 v -26.25 c 0,-1.8 -0.09,-2.34 -3.94,-2.34 h -1.18 v -1.55 h 19.53 c 6.62,0 11.11,4.44 11.11,9.12 0,4.33 -4.1,8.07 -9.63,8.66 z"
           inkscape:connector-curvature="0"
           style="fill:#000000;stroke-width:0" /></g>    </g>
    <g
       id="g971"
       transform="matrix(0.460278,0,0,0.460278,91.846961,66.522532)">
      <g
         id="g969"
         transform="matrix(0.3,0,0,-0.3,-52.5,222.75)"
         xml:space="preserve"
         stroke-miterlimit="10.433"
         font-style="normal"
         font-variant="normal"
         font-weight="normal"
         font-stretch="normal"
         font-size-adjust="none"
         letter-spacing="normal"
         word-spacing="normal"
         style="font-style:normal;font-variant:normal;font-weight:normal;font-stretch:normal;letter-spacing:normal;word-spacing:normal;text-anchor:start;fill:none;fill-opacity:1;fill-rule:evenodd;stroke:#000000;stroke-linecap:butt;stroke-linejoin:miter;stroke-miterlimit:10.43299961;stroke-dasharray:none;stroke-dashoffset:0;stroke-opacity:1"><path
           d="m 458.32,423.23 0.02,-0.96 0.07,-0.94 0.11,-0.93 0.16,-0.91 0.2,-0.89 0.24,-0.87 0.28,-0.85 0.32,-0.83 0.36,-0.81 0.39,-0.78 0.43,-0.76 0.46,-0.74 0.49,-0.7 0.52,-0.68 0.55,-0.66 0.59,-0.62 0.6,-0.59 0.64,-0.56 0.66,-0.53 0.68,-0.5 0.7,-0.46 0.73,-0.43 0.74,-0.39 0.77,-0.35 0.78,-0.32 0.79,-0.28 0.82,-0.23 0.82,-0.2 0.84,-0.15 0.84,-0.11 0.86,-0.07 0.86,-0.02 c 8.13,0 13,6.92 13,12.7 0,0.5 0,0.84 -0.64,0.84 -0.54,0 -0.54,-0.29 -0.59,-0.79 -0.41,-7.13 -5.73,-11.21 -11.17,-11.21 -3.03,0 -12.8,1.69 -12.8,16.53 0,14.91 9.72,16.6 12.75,16.6 5.44,0 9.88,-4.53 10.86,-11.82 0.11,-0.68 0.11,-0.84 0.8,-0.84 0.79,0 0.79,0.16 0.79,1.2 v 11.8 c 0,0.86 0,1.2 -0.54,1.2 -0.19,0 -0.39,0 -0.8,-0.59 l -2.48,-3.69 c -1.85,1.8 -4.39,4.28 -9.18,4.28 -9.31,0 -17.32,-7.92 -17.32,-18.09 z"
           id="path967"
           inkscape:connector-curvature="0"
           style="fill:#000000;stroke-width:0" /></g>    </g>
    <g
       id="g1021"
       transform="matrix(0.48976392,0,0,0.48976392,35.447428,63.574376)">
      <g
         word-spacing="normal"
         letter-spacing="normal"
         font-size-adjust="none"
         font-stretch="normal"
         font-weight="normal"
         font-variant="normal"
         font-style="normal"
         stroke-miterlimit="10.433"
         xml:space="preserve"
         transform="matrix(0.3,0,0,-0.3,-52.5,222.75)"
         id="g1019"
         style="font-style:normal;font-variant:normal;font-weight:normal;font-stretch:normal;letter-spacing:normal;word-spacing:normal;text-anchor:start;fill:none;fill-opacity:1;fill-rule:evenodd;stroke:#000000;stroke-linecap:butt;stroke-linejoin:miter;stroke-miterlimit:10.43299961;stroke-dasharray:none;stroke-dashoffset:0;stroke-opacity:1"><path
           id="path1017"
           d="m 457.27,440.23 v -1.55 h 1.19 c 3.84,0 3.93,-0.54 3.93,-2.34 v -26.25 c 0,-1.8 -0.09,-2.34 -3.93,-2.34 h -1.19 v -1.55 h 18.23 l -1.34,1.55 h -5.05 c -2.32,0 -2.43,0.34 -2.43,1.98 v 26.95 c 0,1.66 0.11,2 2.43,2 h 4.99 c 3.09,0 6.53,-1.09 9.08,-4.64 2.14,-2.93 2.57,-7.22 2.57,-11.11 0,-5.53 -0.93,-8.51 -2.73,-10.95 -1,-1.34 -3.83,-4.23 -8.86,-4.23 l 1.34,-1.55 c 8.36,0 15.24,7.37 15.24,16.73 0,9.47 -6.72,17.3 -15.24,17.3 z"
           inkscape:connector-curvature="0"
           style="fill:#000000;stroke-width:0" /></g>    </g>
    <rect
       style="fill:#00f5ff;fill-opacity:0.66666667;stroke:#000000;stroke-width:0.72501594;stroke-linecap:round;stroke-miterlimit:4;stroke-dasharray:none;stroke-opacity:1"
       id="rect815-35-2"
       width="5.8586388"
       height="5.8586388"
       x="83.476212"
       y="153.36902" />
    <rect
       style="fill:#00f5ff;fill-opacity:0.66666667;stroke:#000000;stroke-width:0.72501594;stroke-linecap:round;stroke-miterlimit:4;stroke-dasharray:none;stroke-opacity:1"
       id="rect815-35-2-7"
       width="5.8586388"
       height="5.8586388"
       x="83.476212"
       y="113.12029" />
    <rect
       style="fill:#00f5ff;fill-opacity:0.66549294;stroke:#000000;stroke-width:0.72501594;stroke-linecap:round;stroke-miterlimit:4;stroke-dasharray:none;stroke-opacity:1"
       id="rect815-35-2-0"
       width="5.8586388"
       height="5.8586388"
       x="123.52413"
       y="113.12029" />
    <rect
       style="fill:#00f5ff;fill-opacity:0.66666667;stroke:#000000;stroke-width:0.72501594;stroke-linecap:round;stroke-miterlimit:4;stroke-dasharray:none;stroke-opacity:1"
       id="rect815-35-2-9"
       width="5.8586388"
       height="5.8586388"
       x="123.52412"
       y="153.36902" />
    <path
       style="fill:#ff0000;fill-opacity:1;stroke:#ff0000;stroke-width:0.5;stroke-linecap:butt;stroke-linejoin:miter;stroke-miterlimit:4;stroke-dasharray:none;stroke-opacity:1;marker-end:url(#Arrow1Send)"
       d="m 86.357373,156.34183 40.065487,1e-5"
       id="path1129"
       inkscape:connector-curvature="0" />
    <path
       style="fill:#ff0000;fill-opacity:1;stroke:#fb0000;stroke-width:0.5;stroke-linecap:butt;stroke-linejoin:miter;stroke-miterlimit:4;stroke-dasharray:none;stroke-opacity:1;marker-end:url(#Arrow1Send-3)"
       d="m 86.36156,156.60076 1e-5,-40.06549"
       id="path1129-0"
       inkscape:connector-curvature="0" />
    <g
       transform="matrix(0.27997088,0,0,0.27997088,78.643172,126.40448)"
       id="g3020"
       style="fill:#ff0000;fill-opacity:1">
      <g
         style="font-style:normal;font-variant:normal;font-weight:normal;font-stretch:normal;letter-spacing:normal;word-spacing:normal;text-anchor:start;fill:#ff0000;fill-opacity:1;fill-rule:evenodd;stroke:#000000;stroke-linecap:butt;stroke-linejoin:miter;stroke-miterlimit:10.43299961;stroke-dasharray:none;stroke-dashoffset:0;stroke-opacity:1"
         id="g3018"
         transform="matrix(0.3,0,0,-0.3,-52.5,222.75)"
         xml:space="preserve"
         stroke-miterlimit="10.433"
         font-style="normal"
         font-variant="normal"
         font-weight="normal"
         font-stretch="normal"
         font-size-adjust="none"
         letter-spacing="normal"
         word-spacing="normal"><path
           style="fill:#ff0000;fill-opacity:1;stroke-width:0"
           inkscape:connector-curvature="0"
           d="m 488.35,449.21 0.16,0.01 h 0.16 0.15 l 0.08,0.01 h 0.08 l 0.07,0.01 0.08,0.01 0.07,0.01 0.07,0.01 0.07,0.01 0.07,0.02 0.07,0.02 0.06,0.02 0.06,0.02 0.06,0.03 0.05,0.03 0.06,0.04 0.05,0.04 0.04,0.04 0.04,0.05 0.04,0.05 0.02,0.02 0.02,0.03 0.01,0.03 0.02,0.03 0.01,0.03 0.02,0.04 0.01,0.03 0.01,0.03 0.01,0.04 v 0.04 l 0.01,0.04 0.01,0.04 v 0.04 l 0.01,0.04 v 0.05 0.04 c 0,1 -0.91,1 -1.75,1 h -26.96 c -0.84,0 -1.73,0 -1.73,-1 0,-1 0.89,-1 1.73,-1 z"
           id="path3008" /><path
           style="fill:#ff0000;fill-opacity:1;stroke-width:0"
           inkscape:connector-curvature="0"
           d="m 502.27,449.21 0.15,0.01 h 0.16 0.16 l 0.08,0.01 h 0.08 l 0.07,0.01 0.08,0.01 0.07,0.01 0.07,0.01 0.07,0.01 0.07,0.02 0.06,0.02 0.07,0.02 0.06,0.02 0.06,0.03 0.05,0.03 0.05,0.04 0.05,0.04 0.05,0.04 0.04,0.05 0.04,0.05 0.02,0.02 0.02,0.03 0.01,0.03 0.02,0.03 0.01,0.03 0.01,0.04 0.01,0.03 0.02,0.03 v 0.04 l 0.01,0.04 0.01,0.04 0.01,0.04 v 0.04 0.04 l 0.01,0.05 v 0.04 c 0,1 -0.91,1 -1.75,1 h -26.96 c -0.84,0 -1.73,0 -1.73,-1 0,-1 0.89,-1 1.73,-1 z"
           id="path3010" /><path
           style="fill:#ff0000;fill-opacity:1;stroke-width:0"
           inkscape:connector-curvature="0"
           d="m 524.9,449.21 -0.25,-0.19 -0.24,-0.2 -0.24,-0.19 -0.23,-0.19 -0.22,-0.2 -0.21,-0.19 -0.21,-0.19 -0.19,-0.18 -0.2,-0.19 -0.18,-0.18 -0.17,-0.18 -0.17,-0.17 -0.16,-0.18 -0.16,-0.17 -0.14,-0.16 -0.14,-0.16 -0.14,-0.16 -0.12,-0.16 -0.12,-0.14 -0.12,-0.15 -0.1,-0.14 -0.1,-0.13 -0.1,-0.13 -0.08,-0.12 -0.09,-0.11 -0.07,-0.11 -0.07,-0.1 -0.06,-0.1 -0.06,-0.09 -0.05,-0.08 -0.05,-0.07 -0.04,-0.07 c -2.24,-3.43 -2.64,-6.57 -2.64,-6.62 0,-0.6 0.61,-0.6 1,-0.6 0.84,0 0.89,0.1 1.09,1 1.16,4.88 4.1,9.07 9.72,11.36 0.59,0.19 0.75,0.3 0.75,0.64 0,0.35 -0.3,0.5 -0.41,0.55 -2.18,0.85 -8.21,3.35 -10.11,11.72 -0.15,0.59 -0.2,0.73 -1.04,0.73 -0.39,0 -1,0 -1,-0.59 0,-0.09 0.45,-3.23 2.54,-6.58 1,-1.48 2.44,-3.23 4.58,-4.83 h -37.01 c -0.89,0 -1.8,0 -1.8,-1 0,-1 0.91,-1 1.8,-1 z"
           id="path3012" /><path
           style="fill:#ff0000;fill-opacity:1;stroke-width:0"
           inkscape:connector-curvature="0"
           d="m 464.44,409.41 -0.19,-0.3 -0.18,-0.29 -0.19,-0.28 -0.19,-0.26 -0.18,-0.25 -0.19,-0.23 -0.19,-0.22 -0.18,-0.21 -0.19,-0.2 -0.19,-0.18 -0.18,-0.17 -0.19,-0.16 -0.19,-0.15 -0.18,-0.14 -0.19,-0.13 -0.19,-0.12 -0.19,-0.11 -0.19,-0.1 -0.19,-0.09 -0.19,-0.09 -0.19,-0.07 -0.2,-0.07 -0.19,-0.07 -0.2,-0.05 -0.19,-0.05 -0.2,-0.04 -0.2,-0.04 -0.19,-0.03 -0.41,-0.05 -0.4,-0.03 c -0.61,-0.05 -1.05,-0.05 -1.05,-1 0,-0.3 0.25,-0.55 0.64,-0.55 1.34,0 2.89,0.16 4.28,0.16 1.64,0 3.39,-0.16 4.99,-0.16 0.29,0 0.95,0 0.95,0.95 0,0.55 -0.45,0.6 -0.8,0.6 -1.15,0.09 -2.34,0.5 -2.34,1.73 0,0.61 0.3,1.16 0.69,1.84 l 3.79,6.4 h 12.5 l -0.14,1.53 h -11.42 l 9.83,16.45 1.59,-16.45 0.14,-1.53 c 0.11,-1.05 0.8,-7.83 0.8,-8.33 0,-1.5 -2.59,-1.64 -3.58,-1.64 -0.7,0 -1.2,0 -1.2,-1 0,-0.55 0.59,-0.55 0.7,-0.55 2.03,0 4.19,0.16 6.22,0.16 1.25,0 4.39,-0.16 5.64,-0.16 0.3,0 0.89,0 0.89,1 0,0.55 -0.5,0.55 -1.14,0.55 -3.09,0 -3.09,0.34 -3.25,1.79 l -3.03,31.13 c -0.11,1 -0.11,1.2 -0.95,1.2 -0.8,0 -0.99,-0.34 -1.3,-0.84 z"
           id="path3014" /><path
           style="fill:#ff0000;fill-opacity:1;stroke-width:0"
           inkscape:connector-curvature="0"
           d="m 500.8,407.57 -0.04,-0.18 -0.05,-0.17 -0.04,-0.16 -0.04,-0.15 -0.05,-0.15 -0.04,-0.13 -0.05,-0.13 -0.05,-0.12 -0.06,-0.11 -0.05,-0.11 -0.07,-0.1 -0.07,-0.09 -0.08,-0.08 -0.08,-0.08 -0.1,-0.08 -0.1,-0.06 -0.12,-0.07 -0.12,-0.05 -0.14,-0.05 -0.14,-0.05 -0.17,-0.04 -0.08,-0.02 -0.09,-0.01 -0.09,-0.02 -0.1,-0.01 -0.1,-0.02 -0.11,-0.01 -0.11,-0.01 -0.11,-0.01 -0.12,-0.01 -0.12,-0.01 -0.13,-0.01 -0.13,-0.01 -0.13,-0.01 h -0.14 l -0.15,-0.01 h -0.15 l -0.15,-0.01 h -0.16 -0.17 -0.17 -0.18 -0.18 c -0.84,0 -1.34,0 -1.34,-1 0,-0.55 0.45,-0.55 1.34,-0.55 h 17.78 c 7.88,0 13.75,5.87 13.75,10.77 0,3.57 -2.89,6.46 -7.71,7.01 5.18,0.95 10.42,4.64 10.42,9.38 0,3.68 -3.3,6.87 -9.28,6.87 l -0.69,-1.55 c 4.37,0 5.42,-2.93 5.42,-5.12 0,-4.39 -4.28,-9.13 -10.36,-9.13 h -7.26 l -0.3,-1.09 h 9.41 c 4.78,0 5.73,-3.69 5.73,-5.83 0,-4.94 -4.44,-9.76 -10.31,-9.76 h -6.78 c -0.69,0 -0.8,0 -1.1,0.04 -0.5,0.05 -0.64,0.1 -0.64,0.5 0,0.14 0,0.25 0.25,1.14 l 3.44,13.91 0.3,1.09 3.07,12.36 c 0.46,1.74 0.55,1.89 2.71,1.89 h 6.42 l 0.69,1.55 h -16.74 c -0.94,0 -1.44,0 -1.44,-1 0,-0.55 0.44,-0.55 1.4,-0.55 0.09,0 1.04,0 1.89,-0.09 0.89,-0.11 1.34,-0.16 1.34,-0.8 0,-0.2 -0.05,-0.36 -0.2,-0.95 z"
           id="path3016" /></g>    </g>
    <g
       id="g3154"
       transform="matrix(0.27997088,0,0,0.27997088,53.492168,109.94625)"
       style="fill:#ff0000;fill-opacity:1;stroke:#ff0000;stroke-opacity:1">
      <g
         word-spacing="normal"
         letter-spacing="normal"
         font-size-adjust="none"
         font-stretch="normal"
         font-weight="normal"
         font-variant="normal"
         font-style="normal"
         stroke-miterlimit="10.433"
         xml:space="preserve"
         transform="matrix(0.3,0,0,-0.3,-52.5,222.75)"
         id="g3152"
         style="font-style:normal;font-variant:normal;font-weight:normal;font-stretch:normal;letter-spacing:normal;word-spacing:normal;text-anchor:start;fill:#ff0000;fill-opacity:1;fill-rule:evenodd;stroke:#ff0000;stroke-linecap:butt;stroke-linejoin:miter;stroke-miterlimit:10.43299961;stroke-dasharray:none;stroke-dashoffset:0;stroke-opacity:1"><path
           id="path3142"
           d="m 488.35,449.21 0.16,0.01 h 0.16 0.15 l 0.08,0.01 h 0.08 l 0.07,0.01 0.08,0.01 0.07,0.01 0.07,0.01 0.07,0.01 0.07,0.02 0.07,0.02 0.06,0.02 0.06,0.02 0.06,0.03 0.05,0.03 0.06,0.04 0.05,0.04 0.04,0.04 0.04,0.05 0.04,0.05 0.02,0.02 0.02,0.03 0.01,0.03 0.02,0.03 0.01,0.03 0.02,0.04 0.01,0.03 0.01,0.03 0.01,0.04 v 0.04 l 0.01,0.04 0.01,0.04 v 0.04 l 0.01,0.04 v 0.05 0.04 c 0,1 -0.91,1 -1.75,1 h -26.96 c -0.84,0 -1.73,0 -1.73,-1 0,-1 0.89,-1 1.73,-1 z"
           inkscape:connector-curvature="0"
           style="fill:#ff0000;fill-opacity:1;stroke:#ff0000;stroke-width:0;stroke-opacity:1" /><path
           id="path3144"
           d="m 503.46,449.21 0.16,0.01 h 0.16 0.16 l 0.08,0.01 h 0.07 l 0.08,0.01 0.07,0.01 0.08,0.01 0.07,0.01 0.07,0.01 0.07,0.02 0.06,0.02 0.07,0.02 0.06,0.02 0.06,0.03 0.05,0.03 0.05,0.04 0.05,0.04 0.05,0.04 0.04,0.05 0.04,0.05 0.02,0.02 0.02,0.03 0.01,0.03 0.02,0.03 0.01,0.03 0.01,0.04 0.01,0.03 0.01,0.03 0.01,0.04 0.01,0.04 0.01,0.04 v 0.04 l 0.01,0.04 v 0.04 0.05 0.04 c 0,1 -0.9,1 -1.75,1 h -26.95 c -0.84,0 -1.73,0 -1.73,-1 0,-1 0.89,-1 1.73,-1 z"
           inkscape:connector-curvature="0"
           style="fill:#ff0000;fill-opacity:1;stroke:#ff0000;stroke-width:0;stroke-opacity:1" /><path
           id="path3146"
           d="m 527.3,449.21 -0.25,-0.19 -0.25,-0.2 -0.23,-0.19 -0.23,-0.19 -0.22,-0.2 -0.21,-0.19 -0.21,-0.19 -0.2,-0.18 -0.19,-0.19 -0.18,-0.18 -0.17,-0.18 -0.17,-0.17 -0.16,-0.18 -0.16,-0.17 -0.14,-0.16 -0.14,-0.16 -0.14,-0.16 -0.12,-0.16 -0.12,-0.14 -0.12,-0.15 -0.1,-0.14 -0.1,-0.13 -0.1,-0.13 -0.09,-0.12 -0.08,-0.11 -0.07,-0.11 -0.07,-0.1 -0.07,-0.1 -0.05,-0.09 -0.06,-0.08 -0.04,-0.07 -0.04,-0.07 c -2.24,-3.43 -2.64,-6.57 -2.64,-6.62 0,-0.6 0.6,-0.6 1,-0.6 0.84,0 0.89,0.1 1.09,1 1.16,4.88 4.09,9.07 9.72,11.36 0.59,0.19 0.75,0.3 0.75,0.64 0,0.35 -0.3,0.5 -0.41,0.55 -2.18,0.85 -8.22,3.35 -10.11,11.72 -0.15,0.59 -0.2,0.73 -1.04,0.73 -0.4,0 -1,0 -1,-0.59 0,-0.09 0.45,-3.23 2.54,-6.58 1,-1.48 2.44,-3.23 4.58,-4.83 h -37.01 c -0.9,0 -1.8,0 -1.8,-1 0,-1 0.9,-1 1.8,-1 z"
           inkscape:connector-curvature="0"
           style="fill:#ff0000;fill-opacity:1;stroke:#ff0000;stroke-width:0;stroke-opacity:1" /><path
           id="path3148"
           d="m 464.44,409.41 -0.19,-0.3 -0.18,-0.29 -0.19,-0.28 -0.19,-0.26 -0.18,-0.25 -0.19,-0.23 -0.19,-0.22 -0.18,-0.21 -0.19,-0.2 -0.19,-0.18 -0.18,-0.17 -0.19,-0.16 -0.19,-0.15 -0.18,-0.14 -0.19,-0.13 -0.19,-0.12 -0.19,-0.11 -0.19,-0.1 -0.19,-0.09 -0.19,-0.09 -0.19,-0.07 -0.2,-0.07 -0.19,-0.07 -0.2,-0.05 -0.19,-0.05 -0.2,-0.04 -0.2,-0.04 -0.19,-0.03 -0.41,-0.05 -0.4,-0.03 c -0.61,-0.05 -1.05,-0.05 -1.05,-1 0,-0.3 0.25,-0.55 0.64,-0.55 1.34,0 2.89,0.16 4.28,0.16 1.64,0 3.39,-0.16 4.99,-0.16 0.29,0 0.95,0 0.95,0.95 0,0.55 -0.45,0.6 -0.8,0.6 -1.15,0.09 -2.34,0.5 -2.34,1.73 0,0.61 0.3,1.16 0.69,1.84 l 3.79,6.4 h 12.5 l -0.14,1.53 h -11.42 l 9.83,16.45 1.59,-16.45 0.14,-1.53 c 0.11,-1.05 0.8,-7.83 0.8,-8.33 0,-1.5 -2.59,-1.64 -3.58,-1.64 -0.7,0 -1.2,0 -1.2,-1 0,-0.55 0.59,-0.55 0.7,-0.55 2.03,0 4.19,0.16 6.22,0.16 1.25,0 4.39,-0.16 5.64,-0.16 0.3,0 0.89,0 0.89,1 0,0.55 -0.5,0.55 -1.14,0.55 -3.09,0 -3.09,0.34 -3.25,1.79 l -3.03,31.13 c -0.11,1 -0.11,1.2 -0.95,1.2 -0.8,0 -0.99,-0.34 -1.3,-0.84 z"
           inkscape:connector-curvature="0"
           style="fill:#ff0000;fill-opacity:1;stroke:#ff0000;stroke-width:0;stroke-opacity:1" /><path
           id="path3150"
           d="m 500.76,407.57 -0.05,-0.18 -0.04,-0.17 -0.05,-0.16 -0.04,-0.15 -0.04,-0.15 -0.05,-0.13 -0.05,-0.13 -0.05,-0.12 -0.05,-0.11 -0.06,-0.11 -0.07,-0.1 -0.07,-0.09 -0.08,-0.08 -0.08,-0.08 -0.1,-0.08 -0.1,-0.06 -0.11,-0.07 -0.13,-0.05 -0.13,-0.05 -0.15,-0.05 -0.16,-0.04 -0.09,-0.02 -0.09,-0.01 -0.09,-0.02 -0.1,-0.01 -0.1,-0.02 -0.1,-0.01 -0.11,-0.01 -0.12,-0.01 -0.11,-0.01 -0.13,-0.01 -0.12,-0.01 -0.13,-0.01 -0.14,-0.01 h -0.14 l -0.14,-0.01 h -0.15 l -0.16,-0.01 h -0.16 -0.16 -0.18 -0.17 -0.18 c -0.85,0 -1.39,0 -1.39,-0.96 0,-0.59 0.43,-0.59 1.39,-0.59 h 16.48 l -0.89,1.55 h -5.62 c -0.71,0 -0.8,0 -1.11,0.04 -0.49,0.05 -0.64,0.1 -0.64,0.5 0,0.14 0,0.25 0.25,1.14 l 6.82,27.36 c 0.44,1.74 0.55,1.89 2.69,1.89 h 5.33 c 4.89,0 9.01,-2.64 9.01,-9.21 0,-2.44 -1,-10.61 -5.23,-16.1 -1.44,-1.84 -5.37,-5.62 -11.5,-5.62 l 0.89,-1.55 c 10.36,0 20.19,10.52 20.19,21.42 0,7.03 -4.24,12.61 -11.72,12.61 h -16.73 c -0.96,0 -1.5,0 -1.5,-0.95 0,-0.6 0.45,-0.6 1.45,-0.6 0.64,0 1.55,-0.04 2.14,-0.09 0.8,-0.11 1.09,-0.25 1.09,-0.8 0,-0.2 -0.04,-0.36 -0.2,-0.95 z"
           inkscape:connector-curvature="0"
           style="fill:#ff0000;fill-opacity:1;stroke:#ff0000;stroke-width:0;stroke-opacity:1" /></g>    </g>
    <circle
       style="fill:#ff0000;fill-opacity:1;stroke:#ff0000;stroke-width:0.38588259;stroke-linecap:round;stroke-miterlimit:4;stroke-dasharray:none;stroke-opacity:1"
       id="path3224"
       cx="86.379372"
       cy="156.09755"
       r="1.6043988" />
    <g
       id="g3546"
       transform="matrix(0.27493676,0,0,0.27493676,32.583396,135.0368)"
       style="fill:#ff0000;fill-opacity:1;stroke:#fe0000;stroke-opacity:1">
      <g
         word-spacing="normal"
         letter-spacing="normal"
         font-size-adjust="none"
         font-stretch="normal"
         font-weight="normal"
         font-variant="normal"
         font-style="normal"
         stroke-miterlimit="10.433"
         xml:space="preserve"
         transform="matrix(0.3,0,0,-0.3,-52.5,222.75)"
         id="g3544"
         style="font-style:normal;font-variant:normal;font-weight:normal;font-stretch:normal;letter-spacing:normal;word-spacing:normal;text-anchor:start;fill:#ff0000;fill-opacity:1;fill-rule:evenodd;stroke:#fe0000;stroke-linecap:butt;stroke-linejoin:miter;stroke-miterlimit:10.43299961;stroke-dasharray:none;stroke-dashoffset:0;stroke-opacity:1"><path
           id="path3516"
           d="m 459.91,406.62 -0.02,-0.07 -0.01,-0.08 -0.02,-0.07 -0.01,-0.08 -0.04,-0.16 -0.04,-0.16 -0.03,-0.16 -0.04,-0.16 -0.04,-0.16 -0.04,-0.16 -0.01,-0.08 -0.02,-0.07 -0.02,-0.07 -0.01,-0.07 -0.02,-0.07 -0.01,-0.07 -0.01,-0.06 -0.01,-0.06 -0.01,-0.05 -0.01,-0.06 -0.01,-0.05 -0.01,-0.04 -0.01,-0.04 v -0.04 -0.03 -0.02 c 0,-0.89 0.7,-1.35 1.43,-1.35 0.61,0 1.5,0.39 1.85,1.39 0.06,0.11 0.65,2.44 0.95,3.69 l 1.1,4.49 c 0.29,1.09 0.59,2.18 0.84,3.34 0.2,0.84 0.61,2.28 0.66,2.48 0.75,1.55 3.39,6.08 8.1,6.08 2.25,0 2.71,-1.84 2.71,-3.48 0,-3.1 -2.46,-9.47 -3.25,-11.61 -0.44,-1.14 -0.49,-1.75 -0.49,-2.3 0,-2.33 1.74,-4.08 4.08,-4.08 4.69,0 6.53,7.27 6.53,7.67 0,0.5 -0.45,0.5 -0.61,0.5 -0.48,0 -0.48,-0.15 -0.73,-0.9 -1,-3.38 -2.64,-6.17 -5.09,-6.17 -0.85,0 -1.19,0.5 -1.19,1.64 0,1.25 0.45,2.45 0.89,3.54 0.95,2.64 3.05,8.11 3.05,10.96 0,3.34 -2.15,5.33 -5.74,5.33 -4.48,0 -6.92,-3.19 -7.76,-4.33 -0.25,2.79 -2.3,4.33 -4.6,4.33 -2.28,0 -3.23,-1.94 -3.73,-2.83 -0.8,-1.71 -1.5,-4.64 -1.5,-4.85 0,-0.5 0.5,-0.5 0.61,-0.5 0.5,0 0.54,0.07 0.84,1.16 0.84,3.53 1.84,5.92 3.64,5.92 0.99,0 1.55,-0.64 1.55,-2.28 0,-1.05 -0.16,-1.61 -0.8,-4.19 z"
           inkscape:connector-curvature="0"
           style="fill:#ff0000;fill-opacity:1;stroke:#fe0000;stroke-width:0;stroke-opacity:1" /><path
           id="path3518"
           d="m 533.55,419.98 h 0.14 0.15 0.14 l 0.08,0.01 h 0.07 l 0.07,0.01 0.07,0.01 0.07,0.01 0.07,0.01 0.07,0.01 0.07,0.02 0.06,0.02 0.06,0.02 0.06,0.02 0.06,0.03 0.06,0.03 0.05,0.04 0.05,0.04 0.05,0.04 0.04,0.04 0.04,0.05 0.02,0.03 0.02,0.03 0.01,0.02 0.02,0.03 0.01,0.04 0.02,0.03 0.01,0.03 0.01,0.04 0.01,0.03 0.01,0.04 0.01,0.04 v 0.04 l 0.01,0.04 v 0.04 0.05 0.04 c 0,1 -0.95,1 -1.64,1 h -29.84 c -0.71,0 -1.64,0 -1.64,-1 0,-0.98 0.93,-0.98 1.68,-0.98 z"
           inkscape:connector-curvature="0"
           style="fill:#ff0000;fill-opacity:1;stroke:#fe0000;stroke-width:0;stroke-opacity:1" /><path
           id="path3520"
           d="m 533.6,410.3 0.07,0.01 h 0.06 0.14 0.14 l 0.07,0.01 h 0.07 l 0.07,0.01 0.07,0.01 0.07,0.01 0.06,0.01 0.07,0.01 0.06,0.02 0.07,0.02 0.06,0.02 0.06,0.02 0.06,0.03 0.05,0.03 0.05,0.04 0.05,0.04 0.05,0.04 0.04,0.05 0.02,0.02 0.02,0.03 0.02,0.02 0.02,0.03 0.01,0.03 0.02,0.03 0.01,0.03 0.02,0.04 0.01,0.03 0.01,0.03 0.01,0.04 0.01,0.04 0.01,0.04 v 0.04 l 0.01,0.04 v 0.04 0.05 0.04 c 0,1 -0.95,1 -1.69,1 H 503.8 c -0.75,0 -1.68,0 -1.68,-1 0,-1 0.93,-1 1.64,-1 z"
           inkscape:connector-curvature="0"
           style="fill:#ff0000;fill-opacity:1;stroke:#fe0000;stroke-width:0;stroke-opacity:1" /><path
           id="path3522"
           d="m 584.71,449.21 0.16,0.01 h 0.15 0.16 l 0.08,0.01 h 0.08 l 0.07,0.01 0.08,0.01 0.07,0.01 0.07,0.01 0.07,0.01 0.07,0.02 0.07,0.02 0.06,0.02 0.06,0.02 0.06,0.03 0.05,0.03 0.06,0.04 0.05,0.04 0.04,0.04 0.04,0.05 0.04,0.05 0.02,0.02 0.02,0.03 0.01,0.03 0.02,0.03 0.01,0.03 0.01,0.04 0.02,0.03 0.01,0.03 0.01,0.04 v 0.04 l 0.01,0.04 0.01,0.04 v 0.04 0.04 l 0.01,0.05 v 0.04 c 0,1 -0.91,1 -1.75,1 h -26.96 c -0.84,0 -1.73,0 -1.73,-1 0,-1 0.89,-1 1.73,-1 z"
           inkscape:connector-curvature="0"
           style="fill:#ff0000;fill-opacity:1;stroke:#fe0000;stroke-width:0;stroke-opacity:1" /><path
           id="path3524"
           d="m 598.62,449.21 0.16,0.01 h 0.16 0.16 l 0.08,0.01 h 0.07 l 0.08,0.01 0.07,0.01 0.08,0.01 0.07,0.01 0.07,0.01 0.07,0.02 0.06,0.02 0.07,0.02 0.06,0.02 0.06,0.03 0.05,0.03 0.05,0.04 0.05,0.04 0.05,0.04 0.04,0.05 0.04,0.05 0.02,0.02 0.02,0.03 0.01,0.03 0.02,0.03 0.01,0.03 0.01,0.04 0.01,0.03 0.01,0.03 0.01,0.04 0.01,0.04 0.01,0.04 v 0.04 l 0.01,0.04 v 0.04 0.05 l 0.01,0.04 c 0,1 -0.91,1 -1.76,1 h -26.95 c -0.84,0 -1.73,0 -1.73,-1 0,-1 0.89,-1 1.73,-1 z"
           inkscape:connector-curvature="0"
           style="fill:#ff0000;fill-opacity:1;stroke:#fe0000;stroke-width:0;stroke-opacity:1" /><path
           id="path3526"
           d="m 621.26,449.21 -0.25,-0.19 -0.24,-0.2 -0.24,-0.19 -0.23,-0.19 -0.22,-0.2 -0.21,-0.19 -0.21,-0.19 -0.2,-0.18 -0.19,-0.19 -0.18,-0.18 -0.17,-0.18 -0.17,-0.17 -0.16,-0.18 -0.16,-0.17 -0.14,-0.16 -0.14,-0.16 -0.14,-0.16 -0.12,-0.16 -0.12,-0.14 -0.12,-0.15 -0.1,-0.14 -0.1,-0.13 -0.1,-0.13 -0.09,-0.12 -0.08,-0.11 -0.07,-0.11 -0.07,-0.1 -0.07,-0.1 -0.05,-0.09 -0.06,-0.08 -0.04,-0.07 -0.04,-0.07 c -2.24,-3.43 -2.64,-6.57 -2.64,-6.62 0,-0.6 0.61,-0.6 1,-0.6 0.84,0 0.89,0.1 1.09,1 1.16,4.88 4.09,9.07 9.72,11.36 0.59,0.19 0.75,0.3 0.75,0.64 0,0.35 -0.3,0.5 -0.41,0.55 -2.19,0.85 -8.22,3.35 -10.11,11.72 -0.15,0.59 -0.2,0.73 -1.04,0.73 -0.39,0 -1,0 -1,-0.59 0,-0.09 0.45,-3.23 2.54,-6.58 1,-1.48 2.44,-3.23 4.58,-4.83 h -37.01 c -0.9,0 -1.8,0 -1.8,-1 0,-1 0.9,-1 1.8,-1 z"
           inkscape:connector-curvature="0"
           style="fill:#ff0000;fill-opacity:1;stroke:#fe0000;stroke-width:0;stroke-opacity:1" /><path
           id="path3528"
           d="m 560.8,409.41 -0.19,-0.3 -0.18,-0.29 -0.19,-0.28 -0.19,-0.26 -0.18,-0.25 -0.19,-0.23 -0.19,-0.22 -0.18,-0.21 -0.19,-0.2 -0.19,-0.18 -0.18,-0.17 -0.19,-0.16 -0.19,-0.15 -0.18,-0.14 -0.19,-0.13 -0.19,-0.12 -0.19,-0.11 -0.19,-0.1 -0.19,-0.09 -0.19,-0.09 -0.19,-0.07 -0.2,-0.07 -0.19,-0.07 -0.2,-0.05 -0.19,-0.05 -0.2,-0.04 -0.2,-0.04 -0.19,-0.03 -0.41,-0.05 -0.4,-0.03 c -0.61,-0.05 -1.05,-0.05 -1.05,-1 0,-0.3 0.25,-0.55 0.64,-0.55 1.34,0 2.89,0.16 4.28,0.16 1.64,0 3.39,-0.16 4.98,-0.16 0.3,0 0.96,0 0.96,0.95 0,0.55 -0.46,0.6 -0.8,0.6 -1.16,0.09 -2.34,0.5 -2.34,1.73 0,0.61 0.3,1.16 0.68,1.84 l 3.8,6.4 h 12.5 l -0.14,1.53 h -11.42 l 9.83,16.45 1.59,-16.45 0.14,-1.53 c 0.11,-1.05 0.8,-7.83 0.8,-8.33 0,-1.5 -2.6,-1.64 -3.58,-1.64 -0.7,0 -1.2,0 -1.2,-1 0,-0.55 0.59,-0.55 0.7,-0.55 2.03,0 4.19,0.16 6.22,0.16 1.25,0 4.39,-0.16 5.64,-0.16 0.3,0 0.89,0 0.89,1 0,0.55 -0.5,0.55 -1.14,0.55 -3.09,0 -3.09,0.34 -3.25,1.79 l -3.03,31.13 c -0.11,1 -0.11,1.2 -0.95,1.2 -0.8,0 -0.99,-0.34 -1.3,-0.84 z"
           inkscape:connector-curvature="0"
           style="fill:#ff0000;fill-opacity:1;stroke:#fe0000;stroke-width:0;stroke-opacity:1" /><path
           id="path3530"
           d="m 597.16,407.57 -0.04,-0.18 -0.05,-0.17 -0.04,-0.16 -0.04,-0.15 -0.05,-0.15 -0.04,-0.13 -0.05,-0.13 -0.05,-0.12 -0.06,-0.11 -0.06,-0.11 -0.06,-0.1 -0.07,-0.09 -0.08,-0.08 -0.08,-0.08 -0.1,-0.08 -0.1,-0.06 -0.12,-0.07 -0.12,-0.05 -0.14,-0.05 -0.15,-0.05 -0.16,-0.04 -0.08,-0.02 -0.09,-0.01 -0.1,-0.02 -0.09,-0.01 -0.1,-0.02 -0.11,-0.01 -0.11,-0.01 -0.11,-0.01 -0.12,-0.01 -0.12,-0.01 -0.13,-0.01 -0.13,-0.01 -0.13,-0.01 h -0.14 l -0.15,-0.01 h -0.15 l -0.15,-0.01 h -0.16 -0.17 -0.17 -0.18 -0.18 c -0.84,0 -1.34,0 -1.34,-1 0,-0.55 0.45,-0.55 1.34,-0.55 h 17.78 c 7.88,0 13.75,5.87 13.75,10.77 0,3.57 -2.89,6.46 -7.71,7.01 5.18,0.95 10.42,4.64 10.42,9.38 0,3.68 -3.3,6.87 -9.28,6.87 l -0.69,-1.55 c 4.37,0 5.42,-2.93 5.42,-5.12 0,-4.39 -4.28,-9.13 -10.36,-9.13 h -7.26 l -0.3,-1.09 h 9.4 c 4.79,0 5.74,-3.69 5.74,-5.83 0,-4.94 -4.44,-9.76 -10.31,-9.76 h -6.78 c -0.69,0 -0.8,0 -1.1,0.04 -0.5,0.05 -0.64,0.1 -0.64,0.5 0,0.14 0,0.25 0.25,1.14 l 3.44,13.91 0.3,1.09 3.07,12.36 c 0.46,1.74 0.55,1.89 2.71,1.89 h 6.42 l 0.69,1.55 h -16.74 c -0.94,0 -1.44,0 -1.44,-1 0,-0.55 0.44,-0.55 1.39,-0.55 0.1,0 1.05,0 1.9,-0.09 0.89,-0.11 1.34,-0.16 1.34,-0.8 0,-0.2 -0.05,-0.36 -0.2,-0.95 z"
           inkscape:connector-curvature="0"
           style="fill:#ff0000;fill-opacity:1;stroke:#fe0000;stroke-width:0;stroke-opacity:1" /><path
           id="path3532"
           d="m 658.29,432.43 -0.04,0.08 -0.03,0.07 -0.04,0.07 -0.03,0.07 -0.04,0.06 -0.03,0.06 -0.04,0.06 -0.03,0.05 -0.04,0.05 -0.03,0.05 -0.03,0.04 -0.04,0.04 -0.03,0.04 -0.04,0.04 -0.03,0.03 -0.03,0.03 -0.04,0.03 -0.03,0.02 -0.04,0.03 -0.03,0.02 -0.04,0.02 -0.03,0.01 -0.04,0.02 -0.03,0.01 -0.04,0.01 -0.04,0.01 -0.04,0.01 -0.03,0.01 h -0.04 -0.04 l -0.04,0.01 h -0.04 c -0.66,0 -0.8,-0.36 -1.1,-1.05 l -12.4,-27.86 c -0.3,-0.64 -0.36,-0.73 -0.36,-0.98 0,-0.55 0.45,-1 1,-1 0.34,0 0.75,0.09 1.14,1.04 l 11.72,26.41 11.7,-26.41 c 0.45,-1.04 0.95,-1.04 1.14,-1.04 0.56,0 1,0.45 1,1 0,0.09 0,0.18 -0.29,0.79 z"
           inkscape:connector-curvature="0"
           style="fill:#ff0000;fill-opacity:1;stroke:#fe0000;stroke-width:0;stroke-opacity:1" /><path
           id="path3534"
           d="m 717.67,449.21 0.16,0.01 h 0.16 0.15 l 0.08,0.01 h 0.08 l 0.07,0.01 0.08,0.01 0.07,0.01 0.07,0.01 0.07,0.01 0.07,0.02 0.07,0.02 0.06,0.02 0.06,0.02 0.06,0.03 0.05,0.03 0.06,0.04 0.05,0.04 0.04,0.04 0.04,0.05 0.04,0.05 0.02,0.02 0.02,0.03 0.01,0.03 0.02,0.03 0.01,0.03 0.02,0.04 0.01,0.03 0.01,0.03 0.01,0.04 v 0.04 l 0.01,0.04 0.01,0.04 v 0.04 l 0.01,0.04 v 0.05 0.04 c 0,1 -0.91,1 -1.75,1 h -26.95 c -0.85,0 -1.74,0 -1.74,-1 0,-1 0.89,-1 1.74,-1 z"
           inkscape:connector-curvature="0"
           style="fill:#ff0000;fill-opacity:1;stroke:#fe0000;stroke-width:0;stroke-opacity:1" /><path
           id="path3536"
           d="m 732.78,449.21 0.16,0.01 h 0.16 0.16 l 0.08,0.01 h 0.07 l 0.08,0.01 0.07,0.01 0.08,0.01 0.07,0.01 0.07,0.01 0.07,0.02 0.06,0.02 0.07,0.02 0.06,0.02 0.06,0.03 0.05,0.03 0.05,0.04 0.05,0.04 0.05,0.04 0.04,0.05 0.04,0.05 0.02,0.02 0.02,0.03 0.01,0.03 0.02,0.03 0.01,0.03 0.01,0.04 0.01,0.03 0.01,0.03 0.01,0.04 0.01,0.04 0.01,0.04 v 0.04 l 0.01,0.04 v 0.04 0.05 0.04 c 0,1 -0.9,1 -1.75,1 h -26.95 c -0.84,0 -1.73,0 -1.73,-1 0,-1 0.89,-1 1.73,-1 z"
           inkscape:connector-curvature="0"
           style="fill:#ff0000;fill-opacity:1;stroke:#fe0000;stroke-width:0;stroke-opacity:1" /><path
           id="path3538"
           d="m 756.62,449.21 -0.25,-0.19 -0.25,-0.2 -0.23,-0.19 -0.23,-0.19 -0.22,-0.2 -0.21,-0.19 -0.21,-0.19 -0.2,-0.18 -0.19,-0.19 -0.18,-0.18 -0.17,-0.18 -0.17,-0.17 -0.16,-0.18 -0.16,-0.17 -0.14,-0.16 -0.14,-0.16 -0.14,-0.16 -0.12,-0.16 -0.12,-0.14 -0.12,-0.15 -0.1,-0.14 -0.1,-0.13 -0.1,-0.13 -0.09,-0.12 -0.08,-0.11 -0.07,-0.11 -0.07,-0.1 -0.07,-0.1 -0.05,-0.09 -0.06,-0.08 -0.04,-0.07 -0.04,-0.07 c -2.24,-3.43 -2.64,-6.57 -2.64,-6.62 0,-0.6 0.6,-0.6 1,-0.6 0.84,0 0.89,0.1 1.09,1 1.16,4.88 4.09,9.07 9.72,11.36 0.59,0.19 0.75,0.3 0.75,0.64 0,0.35 -0.3,0.5 -0.41,0.55 -2.18,0.85 -8.22,3.35 -10.11,11.72 -0.15,0.59 -0.2,0.73 -1.04,0.73 -0.4,0 -1,0 -1,-0.59 0,-0.09 0.45,-3.23 2.54,-6.58 1,-1.48 2.44,-3.23 4.58,-4.83 H 719.6 c -0.88,0 -1.79,0 -1.79,-1 0,-1 0.91,-1 1.79,-1 z"
           inkscape:connector-curvature="0"
           style="fill:#ff0000;fill-opacity:1;stroke:#fe0000;stroke-width:0;stroke-opacity:1" /><path
           id="path3540"
           d="m 693.76,409.41 -0.19,-0.3 -0.18,-0.29 -0.19,-0.28 -0.19,-0.26 -0.18,-0.25 -0.19,-0.23 -0.18,-0.22 -0.19,-0.21 -0.19,-0.2 -0.18,-0.18 -0.19,-0.17 -0.19,-0.16 -0.19,-0.15 -0.18,-0.14 -0.19,-0.13 -0.19,-0.12 -0.19,-0.11 -0.19,-0.1 -0.19,-0.09 -0.19,-0.09 -0.19,-0.07 -0.2,-0.07 -0.19,-0.07 -0.19,-0.05 -0.2,-0.05 -0.2,-0.04 -0.19,-0.04 -0.2,-0.03 -0.41,-0.05 -0.4,-0.03 c -0.61,-0.05 -1.05,-0.05 -1.05,-1 0,-0.3 0.25,-0.55 0.64,-0.55 1.34,0 2.89,0.16 4.28,0.16 1.64,0 3.39,-0.16 4.99,-0.16 0.29,0 0.95,0 0.95,0.95 0,0.55 -0.45,0.6 -0.8,0.6 -1.15,0.09 -2.34,0.5 -2.34,1.73 0,0.61 0.29,1.16 0.69,1.84 l 3.79,6.4 h 12.5 l -0.14,1.53 h -11.42 l 9.83,16.45 1.59,-16.45 0.14,-1.53 c 0.11,-1.05 0.8,-7.83 0.8,-8.33 0,-1.5 -2.59,-1.64 -3.58,-1.64 -0.7,0 -1.2,0 -1.2,-1 0,-0.55 0.59,-0.55 0.7,-0.55 2.03,0 4.19,0.16 6.22,0.16 1.25,0 4.39,-0.16 5.64,-0.16 0.3,0 0.89,0 0.89,1 0,0.55 -0.5,0.55 -1.14,0.55 -3.09,0 -3.09,0.34 -3.25,1.79 l -3.03,31.13 c -0.11,1 -0.11,1.2 -0.95,1.2 -0.8,0 -0.99,-0.34 -1.3,-0.84 z"
           inkscape:connector-curvature="0"
           style="fill:#ff0000;fill-opacity:1;stroke:#fe0000;stroke-width:0;stroke-opacity:1" /><path
           id="path3542"
           d="m 730.08,407.57 -0.05,-0.18 -0.04,-0.17 -0.05,-0.16 -0.04,-0.15 -0.04,-0.15 -0.05,-0.13 -0.05,-0.13 -0.05,-0.12 -0.05,-0.11 -0.06,-0.11 -0.07,-0.1 -0.07,-0.09 -0.08,-0.08 -0.08,-0.08 -0.1,-0.08 -0.1,-0.06 -0.11,-0.07 -0.13,-0.05 -0.13,-0.05 -0.15,-0.05 -0.16,-0.04 -0.09,-0.02 -0.09,-0.01 -0.09,-0.02 -0.1,-0.01 -0.1,-0.02 -0.1,-0.01 -0.11,-0.01 -0.12,-0.01 -0.11,-0.01 -0.13,-0.01 -0.12,-0.01 -0.13,-0.01 -0.14,-0.01 h -0.14 l -0.14,-0.01 h -0.15 l -0.16,-0.01 h -0.16 -0.16 -0.18 -0.17 -0.18 c -0.85,0 -1.39,0 -1.39,-0.96 0,-0.59 0.43,-0.59 1.39,-0.59 h 16.48 l -0.89,1.55 h -5.62 c -0.71,0 -0.8,0 -1.11,0.04 -0.49,0.05 -0.64,0.1 -0.64,0.5 0,0.14 0,0.25 0.25,1.14 l 6.82,27.36 c 0.44,1.74 0.55,1.89 2.69,1.89 h 5.33 c 4.89,0 9.02,-2.64 9.02,-9.21 0,-2.44 -1,-10.61 -5.24,-16.1 -1.44,-1.84 -5.37,-5.62 -11.5,-5.62 l 0.89,-1.55 c 10.36,0 20.19,10.52 20.19,21.42 0,7.03 -4.24,12.61 -11.72,12.61 h -16.73 c -0.96,0 -1.5,0 -1.5,-0.95 0,-0.6 0.45,-0.6 1.45,-0.6 0.64,0 1.55,-0.04 2.14,-0.09 0.8,-0.11 1.09,-0.25 1.09,-0.8 0,-0.2 -0.04,-0.36 -0.2,-0.95 z"
           inkscape:connector-curvature="0"
           style="fill:#ff0000;fill-opacity:1;stroke:#fe0000;stroke-width:0;stroke-opacity:1" /></g>    </g>
  </g>
</svg>
